<?xml version="1.0" standalone="no"?>
 <!DOCTYPE svg PUBLIC "-//W3C//DTD SVG 1.1//EN" 
 "http://www.w3.org/Graphics/SVG/1.1/DTD/svg11.dtd"> 
<svg
  xmlns:svg="http://www.w3.org/2000/svg"
  xmlns="http://www.w3.org/2000/svg"
  xmlns:xlink="http://www.w3.org/1999/xlink"
  version="1.1"
  width="13.500100cm" height="10.160000cm" viewBox="0 0 53150 40000">
<title>SVG Picture created as Practica1Preg5.svg date 2020/10/07 19:33:36 </title>
  <desc>Picture generated by Eeschema-SVG </desc>
<g style="fill:#000000; fill-opacity:1;stroke:#000000; stroke-opacity:1;
stroke-linecap:round; stroke-linejoin:round;"
 transform="translate(0 0) scale(1 1)">
</g>
<g style="fill:#000000; fill-opacity:0.0; 
stroke:#000000; stroke-width:-10; stroke-opacity:1; 
stroke-linecap:round; stroke-linejoin:round;">
</g>
<g style="fill:#840000; fill-opacity:0.0; 
stroke:#840000; stroke-width:-10; stroke-opacity:1; 
stroke-linecap:round; stroke-linejoin:round;">
</g>
<g style="fill:#840000; fill-opacity:0.0; 
stroke:#840000; stroke-width:100; stroke-opacity:1; 
stroke-linecap:round; stroke-linejoin:round;">
</g>
<g style="fill:#840000; fill-opacity:0.0; 
stroke:#840000; stroke-width:60; stroke-opacity:1; 
stroke-linecap:round; stroke-linejoin:round;">
<rect x="5910" y="22680" width="42520" height="12600" rx="0" />
</g>
<g style="fill:#840000; fill-opacity:0.0; 
stroke:#840000; stroke-width:100; stroke-opacity:1; 
stroke-linecap:round; stroke-linejoin:round;">
</g>
<g style="fill:#840000; fill-opacity:0.0; 
stroke:#840000; stroke-width:60; stroke-opacity:1; 
stroke-linecap:round; stroke-linejoin:round;">
<rect x="3940" y="3940" width="45270" height="32120" rx="0" />
</g>
<g style="fill:#840000; fill-opacity:0.0; 
stroke:#840000; stroke-width:100; stroke-opacity:1; 
stroke-linecap:round; stroke-linejoin:round;">
</g>
<g style="fill:#840000; fill-opacity:0.0; 
stroke:#840000; stroke-width:60; stroke-opacity:1; 
stroke-linecap:round; stroke-linejoin:round;">
<rect x="4720" y="4720" width="43710" height="30560" rx="0" />
</g>
<g style="fill:#840000; fill-opacity:0.0; 
stroke:#840000; stroke-width:100; stroke-opacity:1; 
stroke-linecap:round; stroke-linejoin:round;">
</g>
<g style="fill:#840000; fill-opacity:0.0; 
stroke:#840000; stroke-width:60; stroke-opacity:1; 
stroke-linecap:round; stroke-linejoin:round;">
<path d="M23620 4720
L23620 3940
" />
</g>
<g style="fill:#840000; fill-opacity:0.0; 
stroke:#840000; stroke-width:100; stroke-opacity:1; 
stroke-linecap:round; stroke-linejoin:round;">
</g>
<g style="fill:#840000; fill-opacity:0.0; 
stroke:#840000; stroke-width:60; stroke-opacity:1; 
stroke-linecap:round; stroke-linejoin:round;">
<path d="M43310 4720
L43310 3940
" />
</g>
<g style="fill:#840000; fill-opacity:0.0; 
stroke:#840000; stroke-width:100; stroke-opacity:1; 
stroke-linecap:round; stroke-linejoin:round;">
</g>
<g style="fill:#840000; fill-opacity:0.0; 
stroke:#840000; stroke-width:60; stroke-opacity:1; 
stroke-linecap:round; stroke-linejoin:round;">
<text x="13780" y="4580"
textLength="550" font-size="680" lengthAdjust="spacingAndGlyphs"
text-anchor="start" opacity="0">1</text>
<path d="M14190 4560
L13900 4560
" />
<path d="M14050 4560
L14050 4050
L14000 4120
L13950 4170
L13900 4190
" />
</g>
<g style="fill:#840000; fill-opacity:0.0; 
stroke:#840000; stroke-width:100; stroke-opacity:1; 
stroke-linecap:round; stroke-linejoin:round;">
</g>
<g style="fill:#840000; fill-opacity:0.0; 
stroke:#840000; stroke-width:60; stroke-opacity:1; 
stroke-linecap:round; stroke-linejoin:round;">
<text x="33460" y="4580"
textLength="550" font-size="680" lengthAdjust="spacingAndGlyphs"
text-anchor="start" opacity="0">2</text>
<path d="M33580 4090
L33610 4070
L33660 4050
L33780 4050
L33830 4070
L33850 4090
L33870 4140
L33870 4190
L33850 4260
L33560 4560
L33870 4560
" />
</g>
<g style="fill:#840000; fill-opacity:0.0; 
stroke:#840000; stroke-width:100; stroke-opacity:1; 
stroke-linecap:round; stroke-linejoin:round;">
</g>
<g style="fill:#840000; fill-opacity:0.0; 
stroke:#840000; stroke-width:60; stroke-opacity:1; 
stroke-linecap:round; stroke-linejoin:round;">
<path d="M23620 35280
L23620 36060
" />
</g>
<g style="fill:#840000; fill-opacity:0.0; 
stroke:#840000; stroke-width:100; stroke-opacity:1; 
stroke-linecap:round; stroke-linejoin:round;">
</g>
<g style="fill:#840000; fill-opacity:0.0; 
stroke:#840000; stroke-width:60; stroke-opacity:1; 
stroke-linecap:round; stroke-linejoin:round;">
<path d="M43310 35280
L43310 36060
" />
</g>
<g style="fill:#840000; fill-opacity:0.0; 
stroke:#840000; stroke-width:100; stroke-opacity:1; 
stroke-linecap:round; stroke-linejoin:round;">
</g>
<g style="fill:#840000; fill-opacity:0.0; 
stroke:#840000; stroke-width:60; stroke-opacity:1; 
stroke-linecap:round; stroke-linejoin:round;">
<text x="13780" y="35920"
textLength="550" font-size="680" lengthAdjust="spacingAndGlyphs"
text-anchor="start" opacity="0">1</text>
<path d="M14190 35900
L13900 35900
" />
<path d="M14050 35900
L14050 35390
L14000 35460
L13950 35510
L13900 35530
" />
</g>
<g style="fill:#840000; fill-opacity:0.0; 
stroke:#840000; stroke-width:100; stroke-opacity:1; 
stroke-linecap:round; stroke-linejoin:round;">
</g>
<g style="fill:#840000; fill-opacity:0.0; 
stroke:#840000; stroke-width:60; stroke-opacity:1; 
stroke-linecap:round; stroke-linejoin:round;">
<text x="33460" y="35920"
textLength="550" font-size="680" lengthAdjust="spacingAndGlyphs"
text-anchor="start" opacity="0">2</text>
<path d="M33580 35430
L33610 35410
L33660 35390
L33780 35390
L33830 35410
L33850 35430
L33870 35480
L33870 35530
L33850 35600
L33560 35900
L33870 35900
" />
</g>
<g style="fill:#840000; fill-opacity:0.0; 
stroke:#840000; stroke-width:100; stroke-opacity:1; 
stroke-linecap:round; stroke-linejoin:round;">
</g>
<g style="fill:#840000; fill-opacity:0.0; 
stroke:#840000; stroke-width:60; stroke-opacity:1; 
stroke-linecap:round; stroke-linejoin:round;">
<path d="M3940 23620
L4720 23620
" />
</g>
<g style="fill:#840000; fill-opacity:0.0; 
stroke:#840000; stroke-width:100; stroke-opacity:1; 
stroke-linecap:round; stroke-linejoin:round;">
</g>
<g style="fill:#840000; fill-opacity:0.0; 
stroke:#840000; stroke-width:60; stroke-opacity:1; 
stroke-linecap:round; stroke-linejoin:round;">
<text x="4330" y="14030"
textLength="500" font-size="680" lengthAdjust="spacingAndGlyphs"
text-anchor="middle" opacity="0">A</text>
<path d="M4200 13860
L4450 13860
" />
<path d="M4160 14010
L4330 13500
L4500 14010
" />
</g>
<g style="fill:#840000; fill-opacity:0.0; 
stroke:#840000; stroke-width:100; stroke-opacity:1; 
stroke-linecap:round; stroke-linejoin:round;">
</g>
<g style="fill:#840000; fill-opacity:0.0; 
stroke:#840000; stroke-width:60; stroke-opacity:1; 
stroke-linecap:round; stroke-linejoin:round;">
<text x="4330" y="33710"
textLength="570" font-size="680" lengthAdjust="spacingAndGlyphs"
text-anchor="middle" opacity="0">B</text>
<path d="M4360 33420
L4430 33440
L4460 33470
L4480 33520
L4480 33590
L4460 33640
L4430 33660
L4390 33690
L4190 33690
L4190 33180
L4360 33180
L4410 33200
L4430 33220
L4460 33270
L4460 33320
L4430 33370
L4410 33390
L4360 33420
L4190 33420
" />
</g>
<g style="fill:#840000; fill-opacity:0.0; 
stroke:#840000; stroke-width:100; stroke-opacity:1; 
stroke-linecap:round; stroke-linejoin:round;">
</g>
<g style="fill:#840000; fill-opacity:0.0; 
stroke:#840000; stroke-width:60; stroke-opacity:1; 
stroke-linecap:round; stroke-linejoin:round;">
<path d="M49210 23620
L48430 23620
" />
</g>
<g style="fill:#840000; fill-opacity:0.0; 
stroke:#840000; stroke-width:100; stroke-opacity:1; 
stroke-linecap:round; stroke-linejoin:round;">
</g>
<g style="fill:#840000; fill-opacity:0.0; 
stroke:#840000; stroke-width:60; stroke-opacity:1; 
stroke-linecap:round; stroke-linejoin:round;">
<text x="48820" y="14030"
textLength="500" font-size="680" lengthAdjust="spacingAndGlyphs"
text-anchor="middle" opacity="0">A</text>
<path d="M48690 13860
L48940 13860
" />
<path d="M48650 14010
L48820 13500
L48990 14010
" />
</g>
<g style="fill:#840000; fill-opacity:0.0; 
stroke:#840000; stroke-width:100; stroke-opacity:1; 
stroke-linecap:round; stroke-linejoin:round;">
</g>
<g style="fill:#840000; fill-opacity:0.0; 
stroke:#840000; stroke-width:60; stroke-opacity:1; 
stroke-linecap:round; stroke-linejoin:round;">
<text x="48820" y="33710"
textLength="570" font-size="680" lengthAdjust="spacingAndGlyphs"
text-anchor="middle" opacity="0">B</text>
<path d="M48850 33420
L48920 33440
L48950 33470
L48970 33520
L48970 33590
L48950 33640
L48920 33660
L48880 33690
L48680 33690
L48680 33180
L48850 33180
L48900 33200
L48920 33220
L48950 33270
L48950 33320
L48920 33370
L48900 33390
L48850 33420
L48680 33420
" />
</g>
<g style="fill:#840000; fill-opacity:0.0; 
stroke:#840000; stroke-width:100; stroke-opacity:1; 
stroke-linecap:round; stroke-linejoin:round;">
</g>
<g style="fill:#840000; fill-opacity:0.0; 
stroke:#840000; stroke-width:60; stroke-opacity:1; 
stroke-linecap:round; stroke-linejoin:round;">
<text x="14960" y="33640"
textLength="2760" font-size="780" lengthAdjust="spacingAndGlyphs"
text-anchor="start" opacity="0">Date: </text>
<path d="M15130 33610
L15130 33020
L15270 33020
L15350 33050
L15410 33110
L15430 33160
L15460 33270
L15460 33360
L15430 33470
L15410 33530
L15350 33580
L15270 33610
L15130 33610
" />
<path d="M15970 33610
L15970 33300
L15940 33250
L15880 33220
L15770 33220
L15720 33250
" />
<path d="M15970 33580
L15910 33610
L15770 33610
L15720 33580
L15690 33530
L15690 33470
L15720 33420
L15770 33390
L15910 33390
L15970 33360
" />
<path d="M16170 33220
L16390 33220
" />
<path d="M16250 33020
L16250 33530
L16280 33580
L16330 33610
L16390 33610
" />
<path d="M16810 33580
L16760 33610
L16640 33610
L16590 33580
L16560 33530
L16560 33300
L16590 33250
L16640 33220
L16760 33220
L16810 33250
L16840 33300
L16840 33360
L16560 33420
" />
<path d="M17090 33560
L17120 33580
L17090 33610
L17060 33580
L17090 33560
L17090 33610
" />
<path d="M17090 33250
L17120 33270
L17090 33300
L17060 33270
L17090 33250
L17090 33300
" />
</g>
<g style="fill:#840000; fill-opacity:0.0; 
stroke:#840000; stroke-width:100; stroke-opacity:1; 
stroke-linecap:round; stroke-linejoin:round;">
</g>
<g style="fill:#840000; fill-opacity:0.0; 
stroke:#840000; stroke-width:60; stroke-opacity:1; 
stroke-linecap:round; stroke-linejoin:round;">
<path d="M5910 33900
L48430 33900
" />
</g>
<g style="fill:#840000; fill-opacity:0.0; 
stroke:#840000; stroke-width:100; stroke-opacity:1; 
stroke-linecap:round; stroke-linejoin:round;">
</g>
<g style="fill:#840000; fill-opacity:0.0; 
stroke:#840000; stroke-width:60; stroke-opacity:1; 
stroke-linecap:round; stroke-linejoin:round;">
<text x="6300" y="34740"
textLength="16950" font-size="780" lengthAdjust="spacingAndGlyphs"
text-anchor="start" opacity="0">KiCad E.D.A.  kicad (5.1.7-0-10_14)</text>
<path d="M6470 34710
L6470 34120
" />
<path d="M6800 34710
L6550 34370
" />
<path d="M6800 34120
L6470 34460
" />
<path d="M7060 34710
L7060 34320
" />
<path d="M7060 34120
L7030 34150
L7060 34180
L7080 34150
L7060 34120
L7060 34180
" />
<path d="M7670 34660
L7650 34680
L7560 34710
L7510 34710
L7420 34680
L7360 34630
L7340 34570
L7310 34460
L7310 34370
L7340 34260
L7360 34210
L7420 34150
L7510 34120
L7560 34120
L7650 34150
L7670 34180
" />
<path d="M8180 34710
L8180 34400
L8150 34350
L8100 34320
L7980 34320
L7930 34350
" />
<path d="M8180 34680
L8120 34710
L7980 34710
L7930 34680
L7900 34630
L7900 34570
L7930 34520
L7980 34490
L8120 34490
L8180 34460
" />
<path d="M8710 34710
L8710 34120
" />
<path d="M8710 34680
L8660 34710
L8540 34710
L8490 34680
L8460 34660
L8430 34600
L8430 34430
L8460 34370
L8490 34350
L8540 34320
L8660 34320
L8710 34350
" />
<path d="M9440 34400
L9640 34400
" />
<path d="M9720 34710
L9440 34710
L9440 34120
L9720 34120
" />
<path d="M9980 34660
L10010 34680
L9980 34710
L9950 34680
L9980 34660
L9980 34710
" />
<path d="M10260 34710
L10260 34120
L10400 34120
L10480 34150
L10540 34210
L10570 34260
L10600 34370
L10600 34460
L10570 34570
L10540 34630
L10480 34680
L10400 34710
L10260 34710
" />
<path d="M10850 34660
L10880 34680
L10850 34710
L10820 34680
L10850 34660
L10850 34710
" />
<path d="M11100 34540
L11380 34540
" />
<path d="M11050 34710
L11240 34120
L11440 34710
" />
<path d="M11640 34660
L11660 34680
L11640 34710
L11610 34680
L11640 34660
L11640 34710
" />
<path d="M12820 34710
L12820 34120
" />
<path d="M12870 34490
L13040 34710
" />
<path d="M13040 34320
L12820 34540
" />
<path d="M13290 34710
L13290 34320
" />
<path d="M13290 34120
L13260 34150
L13290 34180
L13320 34150
L13290 34120
L13290 34180
" />
<path d="M13830 34680
L13770 34710
L13660 34710
L13600 34680
L13570 34660
L13550 34600
L13550 34430
L13570 34370
L13600 34350
L13660 34320
L13770 34320
L13830 34350
" />
<path d="M14330 34710
L14330 34400
L14300 34350
L14250 34320
L14140 34320
L14080 34350
" />
<path d="M14330 34680
L14280 34710
L14140 34710
L14080 34680
L14050 34630
L14050 34570
L14080 34520
L14140 34490
L14280 34490
L14330 34460
" />
<path d="M14870 34710
L14870 34120
" />
<path d="M14870 34680
L14810 34710
L14700 34710
L14640 34680
L14610 34660
L14580 34600
L14580 34430
L14610 34370
L14640 34350
L14700 34320
L14810 34320
L14870 34350
" />
<path d="M15770 34940
L15740 34910
L15680 34820
L15650 34770
L15620 34680
L15600 34540
L15600 34430
L15620 34290
L15650 34210
L15680 34150
L15740 34070
L15770 34040
" />
<path d="M16270 34120
L15990 34120
L15960 34400
L15990 34370
L16050 34350
L16190 34350
L16240 34370
L16270 34400
L16300 34460
L16300 34600
L16270 34660
L16240 34680
L16190 34710
L16050 34710
L15990 34680
L15960 34660
" />
<path d="M16550 34660
L16580 34680
L16550 34710
L16520 34680
L16550 34660
L16550 34710
" />
<path d="M17140 34710
L16800 34710
" />
<path d="M16970 34710
L16970 34120
L16920 34210
L16860 34260
L16800 34290
" />
<path d="M17390 34660
L17420 34680
L17390 34710
L17370 34680
L17390 34660
L17390 34710
" />
<path d="M17620 34120
L18010 34120
L17760 34710
" />
<path d="M18240 34490
L18690 34490
" />
<path d="M19080 34120
L19140 34120
L19190 34150
L19220 34180
L19250 34230
L19280 34350
L19280 34490
L19250 34600
L19220 34660
L19190 34680
L19140 34710
L19080 34710
L19020 34680
L19000 34660
L18970 34600
L18940 34490
L18940 34350
L18970 34230
L19000 34180
L19020 34150
L19080 34120
" />
<path d="M19530 34490
L19980 34490
" />
<path d="M20570 34710
L20230 34710
" />
<path d="M20400 34710
L20400 34120
L20340 34210
L20290 34260
L20230 34290
" />
<path d="M20930 34120
L20990 34120
L21050 34150
L21070 34180
L21100 34230
L21130 34350
L21130 34490
L21100 34600
L21070 34660
L21050 34680
L20990 34710
L20930 34710
L20880 34680
L20850 34660
L20820 34600
L20790 34490
L20790 34350
L20820 34230
L20850 34180
L20880 34150
L20930 34120
" />
<path d="M21240 34770
L21690 34770
" />
<path d="M22140 34710
L21810 34710
" />
<path d="M21970 34710
L21970 34120
L21920 34210
L21860 34260
L21810 34290
" />
<path d="M22650 34320
L22650 34710
" />
<path d="M22510 34090
L22370 34520
L22730 34520
" />
<path d="M22900 34940
L22930 34910
L22990 34820
L23010 34770
L23040 34680
L23070 34540
L23070 34430
L23040 34290
L23010 34210
L22990 34150
L22930 34070
L22900 34040
" />
</g>
<g style="fill:#840000; fill-opacity:0.0; 
stroke:#840000; stroke-width:100; stroke-opacity:1; 
stroke-linecap:round; stroke-linejoin:round;">
</g>
<g style="fill:#840000; fill-opacity:0.0; 
stroke:#840000; stroke-width:60; stroke-opacity:1; 
stroke-linecap:round; stroke-linejoin:round;">
<path d="M5910 32720
L48430 32720
" />
</g>
<g style="fill:#840000; fill-opacity:0.0; 
stroke:#840000; stroke-width:100; stroke-opacity:1; 
stroke-linecap:round; stroke-linejoin:round;">
</g>
<g style="fill:#840000; fill-opacity:0.0; 
stroke:#840000; stroke-width:120; stroke-opacity:1; 
stroke-linecap:round; stroke-linejoin:round;">
<text x="39760" y="33640"
textLength="2340" font-size="780" lengthAdjust="spacingAndGlyphs"
text-anchor="start" opacity="0">Rev: </text>
<path d="M40310 33610
L40110 33330
" />
<path d="M39970 33610
L39970 33020
L40200 33020
L40250 33050
L40280 33080
L40310 33130
L40310 33220
L40280 33270
L40250 33300
L40200 33330
L39970 33330
" />
<path d="M40790 33580
L40730 33610
L40620 33610
L40560 33580
L40540 33530
L40540 33300
L40560 33250
L40620 33220
L40730 33220
L40790 33250
L40820 33300
L40820 33360
L40540 33420
" />
<path d="M41010 33220
L41150 33610
L41290 33220
" />
<path d="M41520 33560
L41550 33580
L41520 33610
L41490 33580
L41520 33560
L41520 33610
" />
<path d="M41520 33250
L41550 33270
L41520 33300
L41490 33270
L41520 33250
L41520 33300
" />
</g>
<g style="fill:#840000; fill-opacity:0.0; 
stroke:#840000; stroke-width:100; stroke-opacity:1; 
stroke-linecap:round; stroke-linejoin:round;">
</g>
<g style="fill:#840000; fill-opacity:0.0; 
stroke:#840000; stroke-width:60; stroke-opacity:1; 
stroke-linecap:round; stroke-linejoin:round;">
<text x="6300" y="33640"
textLength="4680" font-size="780" lengthAdjust="spacingAndGlyphs"
text-anchor="start" opacity="0">Size: User</text>
<path d="M6440 33580
L6520 33610
L6660 33610
L6720 33580
L6750 33560
L6770 33500
L6770 33440
L6750 33390
L6720 33360
L6660 33330
L6550 33300
L6490 33270
L6470 33250
L6440 33190
L6440 33130
L6470 33080
L6490 33050
L6550 33020
L6690 33020
L6770 33050
" />
<path d="M7030 33610
L7030 33220
" />
<path d="M7030 33020
L7000 33050
L7030 33080
L7060 33050
L7030 33020
L7030 33080
" />
<path d="M7250 33220
L7560 33220
L7250 33610
L7560 33610
" />
<path d="M8010 33580
L7950 33610
L7840 33610
L7790 33580
L7760 33530
L7760 33300
L7790 33250
L7840 33220
L7950 33220
L8010 33250
L8040 33300
L8040 33360
L7760 33420
" />
<path d="M8290 33560
L8320 33580
L8290 33610
L8260 33580
L8290 33560
L8290 33610
" />
<path d="M8290 33250
L8320 33270
L8290 33300
L8260 33270
L8290 33250
L8290 33300
" />
<path d="M9020 33020
L9020 33500
L9050 33560
L9080 33580
L9130 33610
L9250 33610
L9300 33580
L9330 33560
L9360 33500
L9360 33020
" />
<path d="M9610 33580
L9670 33610
L9780 33610
L9840 33580
L9870 33530
L9870 33500
L9840 33440
L9780 33420
L9700 33420
L9640 33390
L9610 33330
L9610 33300
L9640 33250
L9700 33220
L9780 33220
L9840 33250
" />
<path d="M10340 33580
L10290 33610
L10170 33610
L10120 33580
L10090 33530
L10090 33300
L10120 33250
L10170 33220
L10290 33220
L10340 33250
L10370 33300
L10370 33360
L10090 33420
" />
<path d="M10620 33610
L10620 33220
" />
<path d="M10620 33330
L10650 33270
L10680 33250
L10740 33220
L10790 33220
" />
</g>
<g style="fill:#840000; fill-opacity:0.0; 
stroke:#840000; stroke-width:100; stroke-opacity:1; 
stroke-linecap:round; stroke-linejoin:round;">
</g>
<g style="fill:#840000; fill-opacity:0.0; 
stroke:#840000; stroke-width:60; stroke-opacity:1; 
stroke-linecap:round; stroke-linejoin:round;">
<text x="39760" y="34740"
textLength="3350" font-size="780" lengthAdjust="spacingAndGlyphs"
text-anchor="start" opacity="0">Id: 1/1</text>
<path d="M39930 34710
L39930 34120
" />
<path d="M40460 34710
L40460 34120
" />
<path d="M40460 34680
L40400 34710
L40290 34710
L40230 34680
L40210 34660
L40180 34600
L40180 34430
L40210 34370
L40230 34350
L40290 34320
L40400 34320
L40460 34350
" />
<path d="M40740 34660
L40770 34680
L40740 34710
L40710 34680
L40740 34660
L40740 34710
" />
<path d="M40740 34350
L40770 34370
L40740 34400
L40710 34370
L40740 34350
L40740 34400
" />
<path d="M41780 34710
L41440 34710
" />
<path d="M41610 34710
L41610 34120
L41560 34210
L41500 34260
L41440 34290
" />
<path d="M42450 34090
L41950 34850
" />
<path d="M42960 34710
L42620 34710
" />
<path d="M42790 34710
L42790 34120
L42740 34210
L42680 34260
L42620 34290
" />
</g>
<g style="fill:#840000; fill-opacity:0.0; 
stroke:#840000; stroke-width:100; stroke-opacity:1; 
stroke-linecap:round; stroke-linejoin:round;">
</g>
<g style="fill:#840000; fill-opacity:0.0; 
stroke:#840000; stroke-width:60; stroke-opacity:1; 
stroke-linecap:round; stroke-linejoin:round;">
<path d="M5910 31140
L48430 31140
" />
</g>
<g style="fill:#840000; fill-opacity:0.0; 
stroke:#840000; stroke-width:100; stroke-opacity:1; 
stroke-linecap:round; stroke-linejoin:round;">
</g>
<g style="fill:#840000; fill-opacity:0.0; 
stroke:#840000; stroke-width:160; stroke-opacity:1; 
stroke-linecap:round; stroke-linejoin:round;">
<text x="6300" y="32240"
textLength="3710" font-size="1050" lengthAdjust="spacingAndGlyphs"
text-anchor="start" opacity="0">Title: </text>
<path d="M6580 31410
L7030 31410
" />
<path d="M6700 32200
L6800 31410
" />
<path d="M7190 32200
L7260 31680
" />
<path d="M7290 31410
L7250 31450
L7280 31490
L7330 31450
L7290 31410
L7280 31490
" />
<path d="M7520 31680
L7820 31680
" />
<path d="M7670 31410
L7580 32090
L7610 32160
L7680 32200
L7760 32200
" />
<path d="M8130 32200
L8060 32160
L8040 32090
L8120 31410
" />
<path d="M8740 32160
L8660 32200
L8510 32200
L8440 32160
L8410 32090
L8450 31790
L8500 31710
L8580 31680
L8730 31680
L8800 31710
L8830 31790
L8820 31860
L8430 31940
" />
<path d="M9120 32130
L9150 32160
L9110 32200
L9080 32160
L9120 32130
L9110 32200
" />
<path d="M9170 31710
L9210 31750
L9160 31790
L9130 31750
L9170 31710
L9160 31790
" />
</g>
<g style="fill:#840000; fill-opacity:0.0; 
stroke:#840000; stroke-width:100; stroke-opacity:1; 
stroke-linecap:round; stroke-linejoin:round;">
</g>
<g style="fill:#840000; fill-opacity:0.0; 
stroke:#840000; stroke-width:60; stroke-opacity:1; 
stroke-linecap:round; stroke-linejoin:round;">
<text x="6300" y="30720"
textLength="11110" font-size="780" lengthAdjust="spacingAndGlyphs"
text-anchor="start" opacity="0">File: Practica1Preg5.sch</text>
<path d="M6660 30380
L6470 30380
" />
<path d="M6470 30690
L6470 30100
L6750 30100
" />
<path d="M6970 30690
L6970 30300
" />
<path d="M6970 30100
L6940 30130
L6970 30160
L7000 30130
L6970 30100
L6970 30160
" />
<path d="M7340 30690
L7280 30660
L7250 30610
L7250 30100
" />
<path d="M7790 30660
L7730 30690
L7620 30690
L7560 30660
L7530 30610
L7530 30380
L7560 30330
L7620 30300
L7730 30300
L7790 30330
L7810 30380
L7810 30440
L7530 30500
" />
<path d="M8070 30640
L8100 30660
L8070 30690
L8040 30660
L8070 30640
L8070 30690
" />
<path d="M8070 30330
L8100 30350
L8070 30380
L8040 30350
L8070 30330
L8070 30380
" />
<path d="M8800 30690
L8800 30100
L9020 30100
L9080 30130
L9110 30160
L9130 30210
L9130 30300
L9110 30350
L9080 30380
L9020 30410
L8800 30410
" />
<path d="M9390 30690
L9390 30300
" />
<path d="M9390 30410
L9420 30350
L9440 30330
L9500 30300
L9560 30300
" />
<path d="M10010 30690
L10010 30380
L9980 30330
L9920 30300
L9810 30300
L9750 30330
" />
<path d="M10010 30660
L9950 30690
L9810 30690
L9750 30660
L9720 30610
L9720 30550
L9750 30500
L9810 30470
L9950 30470
L10010 30440
" />
<path d="M10540 30660
L10480 30690
L10370 30690
L10310 30660
L10290 30640
L10260 30580
L10260 30410
L10290 30350
L10310 30330
L10370 30300
L10480 30300
L10540 30330
" />
<path d="M10710 30300
L10930 30300
" />
<path d="M10790 30100
L10790 30610
L10820 30660
L10880 30690
L10930 30690
" />
<path d="M11130 30690
L11130 30300
" />
<path d="M11130 30100
L11100 30130
L11130 30160
L11160 30130
L11130 30100
L11130 30160
" />
<path d="M11660 30660
L11610 30690
L11490 30690
L11440 30660
L11410 30640
L11380 30580
L11380 30410
L11410 30350
L11440 30330
L11490 30300
L11610 30300
L11660 30330
" />
<path d="M12170 30690
L12170 30380
L12140 30330
L12080 30300
L11970 30300
L11920 30330
" />
<path d="M12170 30660
L12110 30690
L11970 30690
L11920 30660
L11890 30610
L11890 30550
L11920 30500
L11970 30470
L12110 30470
L12170 30440
" />
<path d="M12760 30690
L12420 30690
" />
<path d="M12590 30690
L12590 30100
L12530 30190
L12480 30240
L12420 30270
" />
<path d="M13010 30690
L13010 30100
L13240 30100
L13290 30130
L13320 30160
L13350 30210
L13350 30300
L13320 30350
L13290 30380
L13240 30410
L13010 30410
" />
<path d="M13600 30690
L13600 30300
" />
<path d="M13600 30410
L13630 30350
L13660 30330
L13710 30300
L13770 30300
" />
<path d="M14190 30660
L14140 30690
L14020 30690
L13970 30660
L13940 30610
L13940 30380
L13970 30330
L14020 30300
L14140 30300
L14190 30330
L14220 30380
L14220 30440
L13940 30500
" />
<path d="M14730 30300
L14730 30780
L14700 30830
L14670 30860
L14610 30890
L14530 30890
L14470 30860
" />
<path d="M14730 30660
L14670 30690
L14560 30690
L14500 30660
L14470 30640
L14440 30580
L14440 30410
L14470 30350
L14500 30330
L14560 30300
L14670 30300
L14730 30330
" />
<path d="M15290 30100
L15010 30100
L14980 30380
L15010 30350
L15060 30330
L15200 30330
L15260 30350
L15290 30380
L15320 30440
L15320 30580
L15290 30640
L15260 30660
L15200 30690
L15060 30690
L15010 30660
L14980 30640
" />
<path d="M15570 30640
L15600 30660
L15570 30690
L15540 30660
L15570 30640
L15570 30690
" />
<path d="M15820 30660
L15880 30690
L15990 30690
L16050 30660
L16070 30610
L16070 30580
L16050 30520
L15990 30500
L15910 30500
L15850 30470
L15820 30410
L15820 30380
L15850 30330
L15910 30300
L15990 30300
L16050 30330
" />
<path d="M16580 30660
L16520 30690
L16410 30690
L16350 30660
L16330 30640
L16300 30580
L16300 30410
L16330 30350
L16350 30330
L16410 30300
L16520 30300
L16580 30330
" />
<path d="M16830 30690
L16830 30100
" />
<path d="M17090 30690
L17090 30380
L17060 30330
L17000 30300
L16920 30300
L16860 30330
L16830 30350
" />
</g>
<g style="fill:#840000; fill-opacity:0.0; 
stroke:#840000; stroke-width:100; stroke-opacity:1; 
stroke-linecap:round; stroke-linejoin:round;">
</g>
<g style="fill:#840000; fill-opacity:0.0; 
stroke:#840000; stroke-width:60; stroke-opacity:1; 
stroke-linecap:round; stroke-linejoin:round;">
<path d="M5910 28780
L48430 28780
" />
</g>
<g style="fill:#840000; fill-opacity:0.0; 
stroke:#840000; stroke-width:100; stroke-opacity:1; 
stroke-linecap:round; stroke-linejoin:round;">
</g>
<g style="fill:#840000; fill-opacity:0.0; 
stroke:#840000; stroke-width:60; stroke-opacity:1; 
stroke-linecap:round; stroke-linejoin:round;">
<text x="6300" y="29660"
textLength="3850" font-size="780" lengthAdjust="spacingAndGlyphs"
text-anchor="start" opacity="0">Sheet: /</text>
<path d="M6440 29600
L6520 29630
L6660 29630
L6720 29600
L6750 29580
L6770 29520
L6770 29460
L6750 29410
L6720 29380
L6660 29350
L6550 29320
L6490 29290
L6470 29270
L6440 29210
L6440 29150
L6470 29100
L6490 29070
L6550 29040
L6690 29040
L6770 29070
" />
<path d="M7030 29630
L7030 29040
" />
<path d="M7280 29630
L7280 29320
L7250 29270
L7200 29240
L7110 29240
L7060 29270
L7030 29290
" />
<path d="M7790 29600
L7730 29630
L7620 29630
L7560 29600
L7530 29550
L7530 29320
L7560 29270
L7620 29240
L7730 29240
L7790 29270
L7810 29320
L7810 29380
L7530 29440
" />
<path d="M8290 29600
L8240 29630
L8120 29630
L8070 29600
L8040 29550
L8040 29320
L8070 29270
L8120 29240
L8240 29240
L8290 29270
L8320 29320
L8320 29380
L8040 29440
" />
<path d="M8490 29240
L8710 29240
" />
<path d="M8570 29040
L8570 29550
L8600 29600
L8660 29630
L8710 29630
" />
<path d="M8910 29580
L8940 29600
L8910 29630
L8880 29600
L8910 29580
L8910 29630
" />
<path d="M8910 29270
L8940 29290
L8910 29320
L8880 29290
L8910 29270
L8910 29320
" />
<path d="M10060 29010
L9560 29770
" />
</g>
<g style="fill:#840000; fill-opacity:0.0; 
stroke:#840000; stroke-width:100; stroke-opacity:1; 
stroke-linecap:round; stroke-linejoin:round;">
</g>
<g style="fill:#840000; fill-opacity:0.0; 
stroke:#840000; stroke-width:60; stroke-opacity:1; 
stroke-linecap:round; stroke-linejoin:round;">
<path d="M13780 32720
L13780 33900
" />
</g>
<g style="fill:#840000; fill-opacity:0.0; 
stroke:#840000; stroke-width:100; stroke-opacity:1; 
stroke-linecap:round; stroke-linejoin:round;">
</g>
<g style="fill:#840000; fill-opacity:0.0; 
stroke:#840000; stroke-width:60; stroke-opacity:1; 
stroke-linecap:round; stroke-linejoin:round;">
<path d="M38980 32720
L38980 35280
" />
</g>
<g style="fill:#840000; fill-opacity:0.0; 
stroke:#840000; stroke-width:0; stroke-opacity:1; 
stroke-linecap:round; stroke-linejoin:round;">
<g >
</g>
<g style="fill:#840000; fill-opacity:0.0; 
stroke:#840000; stroke-width:100; stroke-opacity:1; 
stroke-linecap:round; stroke-linejoin:round;">
<circle cx="30360" cy="9400" r="1000" /> 
</g>
<g style="fill:#840000; fill-opacity:0.0; 
stroke:#840000; stroke-width:60; stroke-opacity:1; 
stroke-linecap:round; stroke-linejoin:round;">
<text x="30360" y="9930"
textLength="920" font-size="1330" lengthAdjust="spacingAndGlyphs"
text-anchor="middle" opacity="0">A</text>
<path d="M30120 9590
L30590 9590
" />
<path d="M30020 9880
L30360 8880
L30690 9880
" />
<path style="fill:#840000; fill-opacity:0.0; 
stroke:#840000; stroke-width:60; stroke-opacity:1; 
stroke-linecap:round; stroke-linejoin:round;fill:none"
d="M 29110,10650
29610,10150
" /> 
<path style="fill:#840000; fill-opacity:0.0; 
stroke:#840000; stroke-width:60; stroke-opacity:1; 
stroke-linecap:round; stroke-linejoin:round;fill:none"
d="M 31110,8650
31610,8150
" /> 
<path style="fill:#840000; fill-opacity:0.0; 
stroke:#840000; stroke-width:60; stroke-opacity:1; 
stroke-linecap:round; stroke-linejoin:round;fill:none"
d="M 31110,8150
31610,8150
31610,8650
" /> 
<path style="fill:#840000; fill-opacity:0.0; 
stroke:#840000; stroke-width:60; stroke-opacity:1; 
stroke-linecap:round; stroke-linejoin:round;fill:none"
d="M 30460,7900
30660,7900
" /> 
<path style="fill:#840000; fill-opacity:0.0; 
stroke:#840000; stroke-width:60; stroke-opacity:1; 
stroke-linecap:round; stroke-linejoin:round;fill:none"
d="M 30560,7800
30560,8000
" /> 
<path d="M30360 10400
L30360 11400
" />
<path d="M30360 8400
L30360 7400
" />
</g>
<g style="fill:#008484; fill-opacity:0.0; 
stroke:#008484; stroke-width:60; stroke-opacity:1; 
stroke-linecap:round; stroke-linejoin:round;">
<text x="32880" y="9210"
textLength="1990" font-size="660" lengthAdjust="spacingAndGlyphs"
text-anchor="middle" opacity="0">MES?</text>
<path d="M32030 9180
L32030 8680
L32200 9040
L32360 8680
L32360 9180
" />
<path d="M32600 8920
L32770 8920
" />
<path d="M32840 9180
L32600 9180
L32600 8680
L32840 8680
" />
<path d="M33030 9160
L33100 9180
L33220 9180
L33270 9160
L33290 9130
L33320 9090
L33320 9040
L33290 8990
L33270 8970
L33220 8940
L33130 8920
L33080 8900
L33050 8870
L33030 8820
L33030 8780
L33050 8730
L33080 8710
L33130 8680
L33240 8680
L33320 8710
" />
<path d="M33600 9130
L33630 9160
L33600 9180
L33580 9160
L33600 9130
L33600 9180
" />
<path d="M33510 8710
L33550 8680
L33670 8680
L33720 8710
L33740 8750
L33740 8800
L33720 8850
L33700 8870
L33650 8900
L33630 8920
L33600 8970
L33600 8990
" />
<text x="35020" y="10120"
textLength="6270" font-size="660" lengthAdjust="spacingAndGlyphs"
text-anchor="middle" opacity="0">Amperemeter_DC</text>
<path d="M32000 9950
L32240 9950
" />
<path d="M31960 10090
L32120 9590
L32290 10090
" />
<path d="M32460 10090
L32460 9760
" />
<path d="M32460 9810
L32480 9780
L32530 9760
L32600 9760
L32650 9780
L32670 9830
L32670 10090
" />
<path d="M32670 9830
L32690 9780
L32740 9760
L32810 9760
L32860 9780
L32880 9830
L32880 10090
" />
<path d="M33120 9760
L33120 10260
" />
<path d="M33120 9780
L33170 9760
L33270 9760
L33310 9780
L33340 9810
L33360 9850
L33360 10000
L33340 10040
L33310 10070
L33270 10090
L33170 10090
L33120 10070
" />
<path d="M33770 10070
L33720 10090
L33620 10090
L33570 10070
L33550 10020
L33550 9830
L33570 9780
L33620 9760
L33720 9760
L33770 9780
L33790 9830
L33790 9880
L33550 9920
" />
<path d="M34000 10090
L34000 9760
" />
<path d="M34000 9850
L34030 9810
L34050 9780
L34100 9760
L34150 9760
" />
<path d="M34500 10070
L34460 10090
L34360 10090
L34310 10070
L34290 10020
L34290 9830
L34310 9780
L34360 9760
L34460 9760
L34500 9780
L34530 9830
L34530 9880
L34290 9920
" />
<path d="M34740 10090
L34740 9760
" />
<path d="M34740 9810
L34770 9780
L34810 9760
L34880 9760
L34930 9780
L34960 9830
L34960 10090
" />
<path d="M34960 9830
L34980 9780
L35030 9760
L35100 9760
L35150 9780
L35170 9830
L35170 10090
" />
<path d="M35600 10070
L35550 10090
L35460 10090
L35410 10070
L35380 10020
L35380 9830
L35410 9780
L35460 9760
L35550 9760
L35600 9780
L35620 9830
L35620 9880
L35380 9920
" />
<path d="M35770 9760
L35960 9760
" />
<path d="M35840 9590
L35840 10020
L35860 10070
L35910 10090
L35960 10090
" />
<path d="M36310 10070
L36270 10090
L36170 10090
L36120 10070
L36100 10020
L36100 9830
L36120 9780
L36170 9760
L36270 9760
L36310 9780
L36340 9830
L36340 9880
L36100 9920
" />
<path d="M36550 10090
L36550 9760
" />
<path d="M36550 9850
L36570 9810
L36600 9780
L36650 9760
L36690 9760
" />
<path d="M36740 10140
L37120 10140
" />
<path d="M37240 10090
L37240 9590
L37360 9590
L37430 9620
L37480 9660
L37500 9710
L37530 9810
L37530 9880
L37500 9970
L37480 10020
L37430 10070
L37360 10090
L37240 10090
" />
<path d="M38030 10040
L38000 10070
L37930 10090
L37880 10090
L37810 10070
L37770 10020
L37740 9970
L37720 9880
L37720 9810
L37740 9710
L37770 9660
L37810 9620
L37880 9590
L37930 9590
L38000 9620
L38030 9640
" />
</g>
</g>
<g style="fill:#008484; fill-opacity:0.0; 
stroke:#008484; stroke-width:0; stroke-opacity:1; 
stroke-linecap:round; stroke-linejoin:round;">
<g >
</g>
<g style="fill:#840000; fill-opacity:0.0; 
stroke:#840000; stroke-width:0; stroke-opacity:1; 
stroke-linecap:round; stroke-linejoin:round;">
</g>
<g style="fill:#840000; fill-opacity:0.0; 
stroke:#840000; stroke-width:100; stroke-opacity:1; 
stroke-linecap:round; stroke-linejoin:round;">
<rect x="26360" y="6000" width="2000" height="800" rx="0" />
</g>
<g style="fill:#840000; fill-opacity:0.0; 
stroke:#840000; stroke-width:60; stroke-opacity:1; 
stroke-linecap:round; stroke-linejoin:round;">
<path d="M28360 6400
L28860 6400
" />
<path d="M26360 6400
L25860 6400
" />
</g>
<g style="fill:#008484; fill-opacity:0.0; 
stroke:#008484; stroke-width:60; stroke-opacity:1; 
stroke-linecap:round; stroke-linejoin:round;">
<text x="27360" y="4600"
textLength="1040" font-size="660" lengthAdjust="spacingAndGlyphs"
text-anchor="middle" opacity="0">R2</text>
<path d="M27270 4570
L27110 4330
" />
<path d="M26990 4570
L26990 4070
L27180 4070
L27220 4100
L27250 4120
L27270 4170
L27270 4240
L27250 4290
L27220 4310
L27180 4330
L26990 4330
" />
<path d="M27460 4120
L27490 4100
L27530 4070
L27650 4070
L27700 4100
L27720 4120
L27750 4170
L27750 4210
L27720 4290
L27440 4570
L27750 4570
" />
<text x="27360" y="5510"
textLength="1960" font-size="660" lengthAdjust="spacingAndGlyphs"
text-anchor="middle" opacity="0">1000</text>
<path d="M26780 5480
L26500 5480
" />
<path d="M26640 5480
L26640 4980
L26590 5050
L26550 5100
L26500 5120
" />
<path d="M27090 4980
L27140 4980
L27190 5010
L27210 5030
L27240 5080
L27260 5170
L27260 5290
L27240 5390
L27210 5430
L27190 5460
L27140 5480
L27090 5480
L27050 5460
L27020 5430
L27000 5390
L26970 5290
L26970 5170
L27000 5080
L27020 5030
L27050 5010
L27090 4980
" />
<path d="M27570 4980
L27620 4980
L27660 5010
L27690 5030
L27710 5080
L27740 5170
L27740 5290
L27710 5390
L27690 5430
L27660 5460
L27620 5480
L27570 5480
L27520 5460
L27500 5430
L27470 5390
L27450 5290
L27450 5170
L27470 5080
L27500 5030
L27520 5010
L27570 4980
" />
<path d="M28050 4980
L28090 4980
L28140 5010
L28160 5030
L28190 5080
L28210 5170
L28210 5290
L28190 5390
L28160 5430
L28140 5460
L28090 5480
L28050 5480
L28000 5460
L27970 5430
L27950 5390
L27930 5290
L27930 5170
L27950 5080
L27970 5030
L28000 5010
L28050 4980
" />
</g>
</g>
<g style="fill:#008484; fill-opacity:0.0; 
stroke:#008484; stroke-width:0; stroke-opacity:1; 
stroke-linecap:round; stroke-linejoin:round;">
<g >
</g>
<g style="fill:#840000; fill-opacity:0.0; 
stroke:#840000; stroke-width:0; stroke-opacity:1; 
stroke-linecap:round; stroke-linejoin:round;">
</g>
<g style="fill:#840000; fill-opacity:0.0; 
stroke:#840000; stroke-width:100; stroke-opacity:1; 
stroke-linecap:round; stroke-linejoin:round;">
<rect x="21860" y="6000" width="2000" height="800" rx="0" />
</g>
<g style="fill:#840000; fill-opacity:0.0; 
stroke:#840000; stroke-width:60; stroke-opacity:1; 
stroke-linecap:round; stroke-linejoin:round;">
<path d="M23860 6400
L24360 6400
" />
<path d="M21860 6400
L21360 6400
" />
</g>
<g style="fill:#008484; fill-opacity:0.0; 
stroke:#008484; stroke-width:60; stroke-opacity:1; 
stroke-linecap:round; stroke-linejoin:round;">
<text x="22860" y="4600"
textLength="1040" font-size="660" lengthAdjust="spacingAndGlyphs"
text-anchor="middle" opacity="0">R1</text>
<path d="M22770 4570
L22610 4330
" />
<path d="M22490 4570
L22490 4070
L22680 4070
L22720 4100
L22750 4120
L22770 4170
L22770 4240
L22750 4290
L22720 4310
L22680 4330
L22490 4330
" />
<path d="M23250 4570
L22960 4570
" />
<path d="M23110 4570
L23110 4070
L23060 4140
L23010 4190
L22960 4210
" />
<text x="22860" y="5510"
textLength="1960" font-size="660" lengthAdjust="spacingAndGlyphs"
text-anchor="middle" opacity="0">1000</text>
<path d="M22280 5480
L22000 5480
" />
<path d="M22140 5480
L22140 4980
L22090 5050
L22050 5100
L22000 5120
" />
<path d="M22590 4980
L22640 4980
L22690 5010
L22710 5030
L22740 5080
L22760 5170
L22760 5290
L22740 5390
L22710 5430
L22690 5460
L22640 5480
L22590 5480
L22550 5460
L22520 5430
L22500 5390
L22470 5290
L22470 5170
L22500 5080
L22520 5030
L22550 5010
L22590 4980
" />
<path d="M23070 4980
L23120 4980
L23160 5010
L23190 5030
L23210 5080
L23240 5170
L23240 5290
L23210 5390
L23190 5430
L23160 5460
L23120 5480
L23070 5480
L23020 5460
L23000 5430
L22970 5390
L22950 5290
L22950 5170
L22970 5080
L23000 5030
L23020 5010
L23070 4980
" />
<path d="M23550 4980
L23590 4980
L23640 5010
L23660 5030
L23690 5080
L23710 5170
L23710 5290
L23690 5390
L23660 5430
L23640 5460
L23590 5480
L23550 5480
L23500 5460
L23470 5430
L23450 5390
L23430 5290
L23430 5170
L23450 5080
L23470 5030
L23500 5010
L23550 4980
" />
</g>
</g>
<g style="fill:#008484; fill-opacity:0.0; 
stroke:#008484; stroke-width:0; stroke-opacity:1; 
stroke-linecap:round; stroke-linejoin:round;">
<g >
</g>
<g style="fill:#840000; fill-opacity:0.0; 
stroke:#840000; stroke-width:0; stroke-opacity:1; 
stroke-linecap:round; stroke-linejoin:round;">
</g>
<g style="fill:#840000; fill-opacity:1.0; 
stroke:#840000; stroke-width:60; stroke-opacity:1; 
stroke-linecap:round; stroke-linejoin:round;">
<rect x="18460" y="9200" width="1800" height="100" rx="0" />
<rect x="18740" y="9430" width="1200" height="200" rx="0" />
</g>
<g style="fill:#840000; fill-opacity:0.0; 
stroke:#840000; stroke-width:60; stroke-opacity:1; 
stroke-linecap:round; stroke-linejoin:round;">
<path style="fill:#840000; fill-opacity:0.0; 
stroke:#840000; stroke-width:60; stroke-opacity:1; 
stroke-linecap:round; stroke-linejoin:round;fill:none"
d="M 19360,9600
19360,9900
" /> 
<path style="fill:#840000; fill-opacity:0.0; 
stroke:#840000; stroke-width:60; stroke-opacity:1; 
stroke-linecap:round; stroke-linejoin:round;fill:none"
d="M 19360,9200
19360,8900
" /> 
</g>
<g style="fill:#840000; fill-opacity:0.0; 
stroke:#840000; stroke-width:100; stroke-opacity:1; 
stroke-linecap:round; stroke-linejoin:round;">
<path style="fill:#840000; fill-opacity:0.0; 
stroke:#840000; stroke-width:100; stroke-opacity:1; 
stroke-linecap:round; stroke-linejoin:round;fill:none"
d="M 19560,8550
19960,8550
" /> 
<path style="fill:#840000; fill-opacity:0.0; 
stroke:#840000; stroke-width:100; stroke-opacity:1; 
stroke-linecap:round; stroke-linejoin:round;fill:none"
d="M 19760,8350
19760,8750
" /> 
</g>
<g style="fill:#840000; fill-opacity:0.0; 
stroke:#840000; stroke-width:60; stroke-opacity:1; 
stroke-linecap:round; stroke-linejoin:round;">
<path d="M19360 8900
L19360 7900
" />
<path d="M19360 9900
L19360 10900
" />
</g>
<g style="fill:#008484; fill-opacity:0.0; 
stroke:#008484; stroke-width:60; stroke-opacity:1; 
stroke-linecap:round; stroke-linejoin:round;">
<text x="21250" y="9210"
textLength="1420" font-size="660" lengthAdjust="spacingAndGlyphs"
text-anchor="middle" opacity="0">BT1</text>
<path d="M20850 8920
L20920 8940
L20950 8970
L20970 9010
L20970 9090
L20950 9130
L20920 9160
L20880 9180
L20690 9180
L20690 8680
L20850 8680
L20900 8710
L20920 8730
L20950 8780
L20950 8820
L20920 8870
L20900 8900
L20850 8920
L20690 8920
" />
<path d="M21110 8680
L21400 8680
" />
<path d="M21260 9180
L21260 8680
" />
<path d="M21830 9180
L21540 9180
" />
<path d="M21690 9180
L21690 8680
L21640 8750
L21590 8800
L21540 8820
" />
<text x="20810" y="10120"
textLength="540" font-size="660" lengthAdjust="spacingAndGlyphs"
text-anchor="middle" opacity="0">5</text>
<path d="M20920 9590
L20690 9590
L20660 9830
L20690 9810
L20730 9780
L20850 9780
L20900 9810
L20920 9830
L20950 9880
L20950 10000
L20920 10040
L20900 10070
L20850 10090
L20730 10090
L20690 10070
L20660 10040
" />
</g>
</g>
<g style="fill:#008484; fill-opacity:0.0; 
stroke:#008484; stroke-width:0; stroke-opacity:1; 
stroke-linecap:round; stroke-linejoin:round;">
<g >
</g>
<g style="fill:#840000; fill-opacity:0.0; 
stroke:#840000; stroke-width:0; stroke-opacity:1; 
stroke-linecap:round; stroke-linejoin:round;">
</g>
<g style="fill:#840000; fill-opacity:0.0; 
stroke:#840000; stroke-width:100; stroke-opacity:1; 
stroke-linecap:round; stroke-linejoin:round;">
<circle cx="30210" cy="18450" r="1000" /> 
</g>
<g style="fill:#840000; fill-opacity:0.0; 
stroke:#840000; stroke-width:60; stroke-opacity:1; 
stroke-linecap:round; stroke-linejoin:round;">
<text x="30210" y="18980"
textLength="920" font-size="1330" lengthAdjust="spacingAndGlyphs"
text-anchor="middle" opacity="0">A</text>
<path d="M29970 18640
L30440 18640
" />
<path d="M29870 18930
L30210 17930
L30540 18930
" />
<path style="fill:#840000; fill-opacity:0.0; 
stroke:#840000; stroke-width:60; stroke-opacity:1; 
stroke-linecap:round; stroke-linejoin:round;fill:none"
d="M 28960,19700
29460,19200
" /> 
<path style="fill:#840000; fill-opacity:0.0; 
stroke:#840000; stroke-width:60; stroke-opacity:1; 
stroke-linecap:round; stroke-linejoin:round;fill:none"
d="M 30960,17700
31460,17200
" /> 
<path style="fill:#840000; fill-opacity:0.0; 
stroke:#840000; stroke-width:60; stroke-opacity:1; 
stroke-linecap:round; stroke-linejoin:round;fill:none"
d="M 30960,17200
31460,17200
31460,17700
" /> 
<path style="fill:#840000; fill-opacity:0.0; 
stroke:#840000; stroke-width:60; stroke-opacity:1; 
stroke-linecap:round; stroke-linejoin:round;fill:none"
d="M 30310,16950
30510,16950
" /> 
<path style="fill:#840000; fill-opacity:0.0; 
stroke:#840000; stroke-width:60; stroke-opacity:1; 
stroke-linecap:round; stroke-linejoin:round;fill:none"
d="M 30410,16850
30410,17050
" /> 
<path d="M30210 19450
L30210 20450
" />
<path d="M30210 17450
L30210 16450
" />
</g>
<g style="fill:#008484; fill-opacity:0.0; 
stroke:#008484; stroke-width:60; stroke-opacity:1; 
stroke-linecap:round; stroke-linejoin:round;">
<text x="32730" y="18260"
textLength="1990" font-size="660" lengthAdjust="spacingAndGlyphs"
text-anchor="middle" opacity="0">MES?</text>
<path d="M31880 18230
L31880 17730
L32050 18090
L32210 17730
L32210 18230
" />
<path d="M32450 17970
L32620 17970
" />
<path d="M32690 18230
L32450 18230
L32450 17730
L32690 17730
" />
<path d="M32880 18210
L32950 18230
L33070 18230
L33120 18210
L33140 18180
L33170 18140
L33170 18090
L33140 18040
L33120 18020
L33070 17990
L32980 17970
L32930 17950
L32900 17920
L32880 17870
L32880 17830
L32900 17780
L32930 17760
L32980 17730
L33090 17730
L33170 17760
" />
<path d="M33450 18180
L33480 18210
L33450 18230
L33430 18210
L33450 18180
L33450 18230
" />
<path d="M33360 17760
L33400 17730
L33520 17730
L33570 17760
L33590 17800
L33590 17850
L33570 17900
L33550 17920
L33500 17950
L33480 17970
L33450 18020
L33450 18040
" />
<text x="34870" y="19170"
textLength="6270" font-size="660" lengthAdjust="spacingAndGlyphs"
text-anchor="middle" opacity="0">Amperemeter_DC</text>
<path d="M31850 19000
L32090 19000
" />
<path d="M31810 19140
L31970 18640
L32140 19140
" />
<path d="M32310 19140
L32310 18810
" />
<path d="M32310 18860
L32330 18830
L32380 18810
L32450 18810
L32500 18830
L32520 18880
L32520 19140
" />
<path d="M32520 18880
L32540 18830
L32590 18810
L32660 18810
L32710 18830
L32730 18880
L32730 19140
" />
<path d="M32970 18810
L32970 19310
" />
<path d="M32970 18830
L33020 18810
L33120 18810
L33160 18830
L33190 18860
L33210 18900
L33210 19050
L33190 19090
L33160 19120
L33120 19140
L33020 19140
L32970 19120
" />
<path d="M33620 19120
L33570 19140
L33470 19140
L33420 19120
L33400 19070
L33400 18880
L33420 18830
L33470 18810
L33570 18810
L33620 18830
L33640 18880
L33640 18930
L33400 18970
" />
<path d="M33850 19140
L33850 18810
" />
<path d="M33850 18900
L33880 18860
L33900 18830
L33950 18810
L34000 18810
" />
<path d="M34350 19120
L34310 19140
L34210 19140
L34160 19120
L34140 19070
L34140 18880
L34160 18830
L34210 18810
L34310 18810
L34350 18830
L34380 18880
L34380 18930
L34140 18970
" />
<path d="M34590 19140
L34590 18810
" />
<path d="M34590 18860
L34620 18830
L34660 18810
L34730 18810
L34780 18830
L34810 18880
L34810 19140
" />
<path d="M34810 18880
L34830 18830
L34880 18810
L34950 18810
L35000 18830
L35020 18880
L35020 19140
" />
<path d="M35450 19120
L35400 19140
L35310 19140
L35260 19120
L35230 19070
L35230 18880
L35260 18830
L35310 18810
L35400 18810
L35450 18830
L35470 18880
L35470 18930
L35230 18970
" />
<path d="M35620 18810
L35810 18810
" />
<path d="M35690 18640
L35690 19070
L35710 19120
L35760 19140
L35810 19140
" />
<path d="M36160 19120
L36120 19140
L36020 19140
L35970 19120
L35950 19070
L35950 18880
L35970 18830
L36020 18810
L36120 18810
L36160 18830
L36190 18880
L36190 18930
L35950 18970
" />
<path d="M36400 19140
L36400 18810
" />
<path d="M36400 18900
L36420 18860
L36450 18830
L36500 18810
L36540 18810
" />
<path d="M36590 19190
L36970 19190
" />
<path d="M37090 19140
L37090 18640
L37210 18640
L37280 18670
L37330 18710
L37350 18760
L37380 18860
L37380 18930
L37350 19020
L37330 19070
L37280 19120
L37210 19140
L37090 19140
" />
<path d="M37880 19090
L37850 19120
L37780 19140
L37730 19140
L37660 19120
L37620 19070
L37590 19020
L37570 18930
L37570 18860
L37590 18760
L37620 18710
L37660 18670
L37730 18640
L37780 18640
L37850 18670
L37880 18690
" />
</g>
</g>
<g style="fill:#008484; fill-opacity:0.0; 
stroke:#008484; stroke-width:0; stroke-opacity:1; 
stroke-linecap:round; stroke-linejoin:round;">
<g >
</g>
<g style="fill:#840000; fill-opacity:0.0; 
stroke:#840000; stroke-width:0; stroke-opacity:1; 
stroke-linecap:round; stroke-linejoin:round;">
</g>
<g style="fill:#840000; fill-opacity:1.0; 
stroke:#840000; stroke-width:60; stroke-opacity:1; 
stroke-linecap:round; stroke-linejoin:round;">
<rect x="18310" y="18250" width="1800" height="100" rx="0" />
<rect x="18590" y="18480" width="1200" height="200" rx="0" />
</g>
<g style="fill:#840000; fill-opacity:0.0; 
stroke:#840000; stroke-width:60; stroke-opacity:1; 
stroke-linecap:round; stroke-linejoin:round;">
<path style="fill:#840000; fill-opacity:0.0; 
stroke:#840000; stroke-width:60; stroke-opacity:1; 
stroke-linecap:round; stroke-linejoin:round;fill:none"
d="M 19210,18650
19210,18950
" /> 
<path style="fill:#840000; fill-opacity:0.0; 
stroke:#840000; stroke-width:60; stroke-opacity:1; 
stroke-linecap:round; stroke-linejoin:round;fill:none"
d="M 19210,18250
19210,17950
" /> 
</g>
<g style="fill:#840000; fill-opacity:0.0; 
stroke:#840000; stroke-width:100; stroke-opacity:1; 
stroke-linecap:round; stroke-linejoin:round;">
<path style="fill:#840000; fill-opacity:0.0; 
stroke:#840000; stroke-width:100; stroke-opacity:1; 
stroke-linecap:round; stroke-linejoin:round;fill:none"
d="M 19410,17600
19810,17600
" /> 
<path style="fill:#840000; fill-opacity:0.0; 
stroke:#840000; stroke-width:100; stroke-opacity:1; 
stroke-linecap:round; stroke-linejoin:round;fill:none"
d="M 19610,17400
19610,17800
" /> 
</g>
<g style="fill:#840000; fill-opacity:0.0; 
stroke:#840000; stroke-width:60; stroke-opacity:1; 
stroke-linecap:round; stroke-linejoin:round;">
<path d="M19210 17950
L19210 16950
" />
<path d="M19210 18950
L19210 19950
" />
</g>
<g style="fill:#008484; fill-opacity:0.0; 
stroke:#008484; stroke-width:60; stroke-opacity:1; 
stroke-linecap:round; stroke-linejoin:round;">
<text x="21100" y="18260"
textLength="1420" font-size="660" lengthAdjust="spacingAndGlyphs"
text-anchor="middle" opacity="0">BT2</text>
<path d="M20700 17970
L20770 17990
L20800 18020
L20820 18060
L20820 18140
L20800 18180
L20770 18210
L20730 18230
L20540 18230
L20540 17730
L20700 17730
L20750 17760
L20770 17780
L20800 17830
L20800 17870
L20770 17920
L20750 17950
L20700 17970
L20540 17970
" />
<path d="M20960 17730
L21250 17730
" />
<path d="M21110 18230
L21110 17730
" />
<path d="M21390 17780
L21420 17760
L21460 17730
L21580 17730
L21630 17760
L21650 17780
L21680 17830
L21680 17870
L21650 17950
L21370 18230
L21680 18230
" />
<text x="20660" y="19170"
textLength="540" font-size="660" lengthAdjust="spacingAndGlyphs"
text-anchor="middle" opacity="0">5</text>
<path d="M20770 18640
L20540 18640
L20510 18880
L20540 18860
L20580 18830
L20700 18830
L20750 18860
L20770 18880
L20800 18930
L20800 19050
L20770 19090
L20750 19120
L20700 19140
L20580 19140
L20540 19120
L20510 19090
" />
</g>
</g>
<g style="fill:#008484; fill-opacity:0.0; 
stroke:#008484; stroke-width:0; stroke-opacity:1; 
stroke-linecap:round; stroke-linejoin:round;">
<g >
</g>
<g style="fill:#840000; fill-opacity:0.0; 
stroke:#840000; stroke-width:0; stroke-opacity:1; 
stroke-linecap:round; stroke-linejoin:round;">
</g>
<g style="fill:#840000; fill-opacity:0.0; 
stroke:#840000; stroke-width:100; stroke-opacity:1; 
stroke-linecap:round; stroke-linejoin:round;">
<rect x="23940" y="15210" width="2000" height="800" rx="0" />
</g>
<g style="fill:#840000; fill-opacity:0.0; 
stroke:#840000; stroke-width:60; stroke-opacity:1; 
stroke-linecap:round; stroke-linejoin:round;">
<path d="M25940 15610
L26440 15610
" />
<path d="M23940 15610
L23440 15610
" />
</g>
<g style="fill:#008484; fill-opacity:0.0; 
stroke:#008484; stroke-width:60; stroke-opacity:1; 
stroke-linecap:round; stroke-linejoin:round;">
<text x="24940" y="13810"
textLength="990" font-size="660" lengthAdjust="spacingAndGlyphs"
text-anchor="middle" opacity="0">Re</text>
<path d="M24880 13780
L24710 13540
" />
<path d="M24590 13780
L24590 13280
L24780 13280
L24830 13310
L24850 13330
L24880 13380
L24880 13450
L24850 13500
L24830 13520
L24780 13540
L24590 13540
" />
<path d="M25280 13760
L25230 13780
L25140 13780
L25090 13760
L25070 13710
L25070 13520
L25090 13470
L25140 13450
L25230 13450
L25280 13470
L25300 13520
L25300 13570
L25070 13610
" />
<text x="24940" y="14720"
textLength="1960" font-size="660" lengthAdjust="spacingAndGlyphs"
text-anchor="middle" opacity="0">2000</text>
<path d="M24080 14240
L24100 14220
L24150 14190
L24270 14190
L24320 14220
L24340 14240
L24360 14290
L24360 14330
L24340 14410
L24050 14690
L24360 14690
" />
<path d="M24670 14190
L24720 14190
L24770 14220
L24790 14240
L24820 14290
L24840 14380
L24840 14500
L24820 14600
L24790 14640
L24770 14670
L24720 14690
L24670 14690
L24630 14670
L24600 14640
L24580 14600
L24550 14500
L24550 14380
L24580 14290
L24600 14240
L24630 14220
L24670 14190
" />
<path d="M25150 14190
L25200 14190
L25240 14220
L25270 14240
L25290 14290
L25320 14380
L25320 14500
L25290 14600
L25270 14640
L25240 14670
L25200 14690
L25150 14690
L25100 14670
L25080 14640
L25050 14600
L25030 14500
L25030 14380
L25050 14290
L25080 14240
L25100 14220
L25150 14190
" />
<path d="M25630 14190
L25670 14190
L25720 14220
L25740 14240
L25770 14290
L25790 14380
L25790 14500
L25770 14600
L25740 14640
L25720 14670
L25670 14690
L25630 14690
L25580 14670
L25550 14640
L25530 14600
L25510 14500
L25510 14380
L25530 14290
L25550 14240
L25580 14220
L25630 14190
" />
</g>
</g>
<g style="fill:#008484; fill-opacity:0.0; 
stroke:#008484; stroke-width:60; stroke-opacity:1; 
stroke-linecap:round; stroke-linejoin:round;">
</g>
<g style="fill:#008400; fill-opacity:0.0; 
stroke:#008400; stroke-width:60; stroke-opacity:1; 
stroke-linecap:round; stroke-linejoin:round;">
<path d="M21360 6400
L19360 6400
" />
<path d="M24360 6400
L25860 6400
" />
<path d="M28860 6400
L30360 6400
" />
<path d="M30360 6400
L30360 7400
" />
<path d="M19360 6400
L19360 7900
" />
<path d="M19360 10900
L19360 11400
" />
<path d="M19360 11400
L30360 11400
" />
<path d="M19210 19950
L19210 20450
" />
<path d="M19210 20450
L30210 20450
" />
<path d="M26450 15620
L30230 15620
" />
<path d="M30230 15620
L30230 16470
" />
<path d="M23470 15560
L19200 15560
" />
<path d="M19200 15560
L19200 16960
" />
</g> 
</svg>
