<?xml version="1.0" encoding="UTF-8" standalone="no"?>
<svg width="256.6mm" height="180.4mm"
 viewBox="0 0 5132 3608"
 xmlns="http://www.w3.org/2000/svg" xmlns:xlink="http://www.w3.org/1999/xlink"  version="1.2" baseProfile="tiny">
<title>Proteus SVG export</title>
<desc>Created by Proteus Design Suite</desc>
<defs>
</defs>
<g fill="none" stroke="black" stroke-width="1" fill-rule="evenodd" stroke-linecap="square" stroke-linejoin="bevel" >

<g fill="#ffffff" fill-opacity="1" stroke="none" transform="matrix(1,0,0,1,0,0)"
font-family="MS Shell Dlg 2" font-size="58.2083" font-weight="400" font-style="normal" 
>
<path vector-effect="non-scaling-stroke" fill-rule="evenodd" d="M0,0 L5132,0 L5132,3608 L0,3608 L0,0"/>
</g>

<g fill="none" stroke="#000000" stroke-opacity="1" stroke-width="8" stroke-linecap="round" stroke-linejoin="bevel" transform="matrix(1,0,0,1,0,0)"
font-family="MS Shell Dlg 2" font-size="58.2083" font-weight="400" font-style="normal" 
>
<path vector-effect="none" fill-rule="evenodd" d="M1906,1652 L1906,1601 L2109,1601"/>
</g>

<g fill="none" stroke="#000000" stroke-opacity="1" stroke-width="8" stroke-linecap="round" stroke-linejoin="bevel" transform="matrix(1,0,0,1,0,0)"
font-family="MS Shell Dlg 2" font-size="58.2083" font-weight="400" font-style="normal" 
>
<path vector-effect="none" fill-rule="evenodd" d="M1906,1956 L2566,1956"/>
</g>

<g fill="none" stroke="#000000" stroke-opacity="1" stroke-width="8" stroke-linecap="round" stroke-linejoin="bevel" transform="matrix(1,0,0,1,0,0)"
font-family="MS Shell Dlg 2" font-size="58.2083" font-weight="400" font-style="normal" 
>
<path vector-effect="none" fill-rule="evenodd" d="M2363,1601 L2566,1601 L2566,1652"/>
</g>

<g fill="none" stroke="#000000" stroke-opacity="1" stroke-width="8" stroke-linecap="round" stroke-linejoin="bevel" transform="matrix(1,0,0,1,0,0)"
font-family="MS Shell Dlg 2" font-size="58.2083" font-weight="400" font-style="normal" 
>
<path vector-effect="none" fill-rule="evenodd" d="M2566,1652 L2566,1702"/>
</g>

<g fill="none" stroke="#000000" stroke-opacity="1" stroke-width="8" stroke-linecap="round" stroke-linejoin="bevel" transform="matrix(1,0,0,1,0,0)"
font-family="MS Shell Dlg 2" font-size="58.2083" font-weight="400" font-style="normal" 
>
<path vector-effect="none" fill-rule="evenodd" d="M2566,1652 L2922,1652"/>
</g>

<g fill="none" stroke="#000000" stroke-opacity="1" stroke-width="8" stroke-linecap="round" stroke-linejoin="bevel" transform="matrix(1,0,0,1,0,0)"
font-family="MS Shell Dlg 2" font-size="58.2083" font-weight="400" font-style="normal" 
>
<path vector-effect="none" fill-rule="evenodd" d="M2566,1956"/>
</g>

<g fill="none" stroke="#000000" stroke-opacity="1" stroke-width="8" stroke-linecap="round" stroke-linejoin="bevel" transform="matrix(1,0,0,1,0,0)"
font-family="MS Shell Dlg 2" font-size="58.2083" font-weight="400" font-style="normal" 
>
<path vector-effect="none" fill-rule="evenodd" d="M2566,1956 L2922,1956"/>
</g>

<g fill="none" stroke="#000000" stroke-opacity="1" stroke-width="8" stroke-linecap="round" stroke-linejoin="bevel" transform="matrix(1,0,0,1,0,0)"
font-family="MS Shell Dlg 2" font-size="58.2083" font-weight="400" font-style="normal" 
>
<path vector-effect="none" fill-rule="evenodd" d="M2008,1804 C2008,1860.33 1962.33,1906 1906,1906 C1849.67,1906 1804,1860.33 1804,1804 C1804,1747.67 1849.67,1702 1906,1702 C1962.33,1702 2008,1747.67 2008,1804 "/>
</g>

<g fill="none" stroke="#000000" stroke-opacity="1" stroke-width="8" stroke-linecap="round" stroke-linejoin="bevel" transform="matrix(1,0,0,1,0,0)"
font-family="MS Shell Dlg 2" font-size="58.2083" font-weight="400" font-style="normal" 
>
<polyline fill="none" vector-effect="none" points="1880,1753 1931,1753 " />
</g>

<g fill="none" stroke="#000000" stroke-opacity="1" stroke-width="8" stroke-linecap="round" stroke-linejoin="bevel" transform="matrix(1,0,0,1,0,0)"
font-family="MS Shell Dlg 2" font-size="58.2083" font-weight="400" font-style="normal" 
>
<polyline fill="none" vector-effect="none" points="1906,1728 1906,1779 " />
</g>

<g fill="none" stroke="#000000" stroke-opacity="1" stroke-width="8" stroke-linecap="round" stroke-linejoin="bevel" transform="matrix(1,0,0,1,0,0)"
font-family="MS Shell Dlg 2" font-size="58.2083" font-weight="400" font-style="normal" 
>
<polyline fill="none" vector-effect="none" points="1880,1855 1931,1855 " />
</g>

<g fill="none" stroke="#000000" stroke-opacity="1" stroke-width="8" stroke-linecap="round" stroke-linejoin="bevel" transform="matrix(1,0,0,1,0,0)"
font-family="MS Shell Dlg 2" font-size="58.2083" font-weight="400" font-style="normal" 
>
<polyline fill="none" vector-effect="none" points="1906,1652 1906,1702 " />
</g>

<g fill="none" stroke="#000000" stroke-opacity="1" stroke-width="8" stroke-linecap="round" stroke-linejoin="bevel" transform="matrix(1,0,0,1,0,0)"
font-family="MS Shell Dlg 2" font-size="58.2083" font-weight="400" font-style="normal" 
>
<polyline fill="none" vector-effect="none" points="1906,1956 1906,1906 " />
</g>

<g fill="none" stroke="#000000" stroke-opacity="1" stroke-width="1" stroke-linecap="square" stroke-linejoin="bevel" transform="matrix(1,0,0,1,0,0)"
font-family="Arial" font-size="60.96" font-weight="400" font-style="normal" 
>
<text fill="#000000" fill-opacity="1" stroke="none" xml:space="preserve" x="2037" y="1753" font-family="Arial" font-size="60.96" font-weight="400" font-style="normal" 
 >V1</text>
</g>

<g fill="none" stroke="#000000" stroke-opacity="1" stroke-width="8" stroke-linecap="round" stroke-linejoin="bevel" transform="matrix(1,0,0,1,0,0)"
font-family="MS Shell Dlg 2" font-size="58.2083" font-weight="400" font-style="normal" 
>
</g>

<g fill="none" stroke="#000000" stroke-opacity="1" stroke-width="1" stroke-linecap="square" stroke-linejoin="bevel" transform="matrix(1,0,0,1,0,0)"
font-family="Arial" font-size="40.64" font-weight="400" font-style="normal" 
>
<text fill="#000000" fill-opacity="1" stroke="none" xml:space="preserve" x="2037" y="1813" font-family="Arial" font-size="40.64" font-weight="400" font-style="normal" 
 >5V</text>
</g>

<g fill="none" stroke="#000000" stroke-opacity="1" stroke-width="8" stroke-linecap="round" stroke-linejoin="bevel" transform="matrix(1,0,0,1,0,0)"
font-family="MS Shell Dlg 2" font-size="58.2083" font-weight="400" font-style="normal" 
>
</g>

<g fill="none" stroke="#000000" stroke-opacity="1" stroke-width="8" stroke-linecap="round" stroke-linejoin="bevel" transform="matrix(1,0,0,1,0,0)"
font-family="MS Shell Dlg 2" font-size="58.2083" font-weight="400" font-style="normal" 
>
<path vector-effect="none" fill-rule="evenodd" d="M2160,1580 L2312,1580 L2312,1621 L2160,1621 L2160,1580"/>
</g>

<g fill="none" stroke="#000000" stroke-opacity="1" stroke-width="8" stroke-linecap="round" stroke-linejoin="bevel" transform="matrix(1,0,0,1,0,0)"
font-family="MS Shell Dlg 2" font-size="58.2083" font-weight="400" font-style="normal" 
>
<polyline fill="none" vector-effect="none" points="2109,1601 2160,1601 " />
</g>

<g fill="none" stroke="#000000" stroke-opacity="1" stroke-width="8" stroke-linecap="round" stroke-linejoin="bevel" transform="matrix(1,0,0,1,0,0)"
font-family="MS Shell Dlg 2" font-size="58.2083" font-weight="400" font-style="normal" 
>
<polyline fill="none" vector-effect="none" points="2363,1601 2312,1601 " />
</g>

<g fill="none" stroke="#000000" stroke-opacity="1" stroke-width="1" stroke-linecap="square" stroke-linejoin="bevel" transform="matrix(1,0,0,1,0,0)"
font-family="Arial" font-size="60.96" font-weight="400" font-style="normal" 
>
<text fill="#000000" fill-opacity="1" stroke="none" xml:space="preserve" x="2156" y="1564" font-family="Arial" font-size="60.96" font-weight="400" font-style="normal" 
 >R1</text>
</g>

<g fill="none" stroke="#000000" stroke-opacity="1" stroke-width="8" stroke-linecap="round" stroke-linejoin="bevel" transform="matrix(1,0,0,1,0,0)"
font-family="MS Shell Dlg 2" font-size="58.2083" font-weight="400" font-style="normal" 
>
</g>

<g fill="none" stroke="#000000" stroke-opacity="1" stroke-width="1" stroke-linecap="square" stroke-linejoin="bevel" transform="matrix(1,0,0,1,0,0)"
font-family="Arial" font-size="40.64" font-weight="400" font-style="normal" 
>
<text fill="#000000" fill-opacity="1" stroke="none" xml:space="preserve" x="2156" y="1663" font-family="Arial" font-size="40.64" font-weight="400" font-style="normal" 
 >1k</text>
</g>

<g fill="none" stroke="#000000" stroke-opacity="1" stroke-width="8" stroke-linecap="round" stroke-linejoin="bevel" transform="matrix(1,0,0,1,0,0)"
font-family="MS Shell Dlg 2" font-size="58.2083" font-weight="400" font-style="normal" 
>
</g>

<g fill="none" stroke="#000000" stroke-opacity="1" stroke-width="8" stroke-linecap="round" stroke-linejoin="bevel" transform="matrix(1,0,0,1,0,0)"
font-family="MS Shell Dlg 2" font-size="58.2083" font-weight="400" font-style="normal" 
>
<path vector-effect="none" fill-rule="evenodd" d="M2546,1753 L2586,1753 L2586,1906 L2546,1906 L2546,1753"/>
</g>

<g fill="none" stroke="#000000" stroke-opacity="1" stroke-width="8" stroke-linecap="round" stroke-linejoin="bevel" transform="matrix(1,0,0,1,0,0)"
font-family="MS Shell Dlg 2" font-size="58.2083" font-weight="400" font-style="normal" 
>
<polyline fill="none" vector-effect="none" points="2566,1702 2566,1753 " />
</g>

<g fill="none" stroke="#000000" stroke-opacity="1" stroke-width="8" stroke-linecap="round" stroke-linejoin="bevel" transform="matrix(1,0,0,1,0,0)"
font-family="MS Shell Dlg 2" font-size="58.2083" font-weight="400" font-style="normal" 
>
<polyline fill="none" vector-effect="none" points="2566,1956 2566,1906 " />
</g>

<g fill="none" stroke="#000000" stroke-opacity="1" stroke-width="1" stroke-linecap="square" stroke-linejoin="bevel" transform="matrix(1,0,0,1,0,0)"
font-family="Arial" font-size="60.96" font-weight="400" font-style="normal" 
>
<text fill="#000000" fill-opacity="1" stroke="none" xml:space="preserve" x="2616" y="1804" font-family="Arial" font-size="60.96" font-weight="400" font-style="normal" 
 >R2</text>
</g>

<g fill="none" stroke="#000000" stroke-opacity="1" stroke-width="8" stroke-linecap="round" stroke-linejoin="bevel" transform="matrix(1,0,0,1,0,0)"
font-family="MS Shell Dlg 2" font-size="58.2083" font-weight="400" font-style="normal" 
>
</g>

<g fill="none" stroke="#000000" stroke-opacity="1" stroke-width="1" stroke-linecap="square" stroke-linejoin="bevel" transform="matrix(1,0,0,1,0,0)"
font-family="Arial" font-size="40.64" font-weight="400" font-style="normal" 
>
<text fill="#000000" fill-opacity="1" stroke="none" xml:space="preserve" x="2616" y="1863" font-family="Arial" font-size="40.64" font-weight="400" font-style="normal" 
 >1k</text>
</g>

<g fill="none" stroke="#000000" stroke-opacity="1" stroke-width="8" stroke-linecap="round" stroke-linejoin="bevel" transform="matrix(1,0,0,1,0,0)"
font-family="MS Shell Dlg 2" font-size="58.2083" font-weight="400" font-style="normal" 
>
</g>

<g fill="none" stroke="#000000" stroke-opacity="1" stroke-width="8" stroke-linecap="round" stroke-linejoin="bevel" transform="matrix(1,0,0,1,0,0)"
font-family="MS Shell Dlg 2" font-size="58.2083" font-weight="400" font-style="normal" 
>
<path vector-effect="none" fill-rule="evenodd" d="M3024,1804 C3024,1860.33 2978.33,1906 2922,1906 C2865.67,1906 2820,1860.33 2820,1804 C2820,1747.67 2865.67,1702 2922,1702 C2978.33,1702 3024,1747.67 3024,1804 "/>
</g>

<g fill="none" stroke="#000000" stroke-opacity="1" stroke-width="3" stroke-linecap="round" stroke-linejoin="bevel" transform="matrix(1,0,0,1,0,0)"
font-family="MS Shell Dlg 2" font-size="58.2083" font-weight="400" font-style="normal" 
>
<polyline fill="none" vector-effect="none" points="2901,1667 2881,1667 " />
</g>

<g fill="none" stroke="#000000" stroke-opacity="1" stroke-width="3" stroke-linecap="round" stroke-linejoin="bevel" transform="matrix(1,0,0,1,0,0)"
font-family="MS Shell Dlg 2" font-size="58.2083" font-weight="400" font-style="normal" 
>
<polyline fill="none" vector-effect="none" points="2891,1657 2891,1677 " />
</g>

<g fill="none" stroke="#000000" stroke-opacity="1" stroke-width="3" stroke-linecap="round" stroke-linejoin="bevel" transform="matrix(1,0,0,1,0,0)"
font-family="MS Shell Dlg 2" font-size="58.2083" font-weight="400" font-style="normal" 
>
<polyline fill="none" vector-effect="none" points="2901,1941 2881,1941 " />
</g>

<g fill="none" stroke="#000000" stroke-opacity="1" stroke-width="4" stroke-linecap="round" stroke-linejoin="bevel" transform="matrix(1,0,0,1,0,0)"
font-family="MS Shell Dlg 2" font-size="58.2083" font-weight="400" font-style="normal" 
>
<path vector-effect="none" fill-rule="evenodd" d="M2850,1763 L2993,1763 L2993,1814 L2850,1814 L2850,1763"/>
</g>

<g fill="none" stroke="#000000" stroke-opacity="1" stroke-width="1" stroke-linecap="square" stroke-linejoin="bevel" transform="matrix(1,0,0,1,0,0)"
font-family="Arial" font-size="38.608" font-weight="400" font-style="italic" 
>
<text fill="#000000" fill-opacity="1" stroke="none" xml:space="preserve" x="2878" y="1863" font-family="Arial" font-size="38.608" font-weight="400" font-style="italic" 
 >Volts</text>
</g>

<g fill="none" stroke="#000000" stroke-opacity="1" stroke-width="4" stroke-linecap="round" stroke-linejoin="bevel" transform="matrix(1,0,0,1,0,0)"
font-family="MS Shell Dlg 2" font-size="58.2083" font-weight="400" font-style="normal" 
>
</g>

<g fill="none" stroke="#000000" stroke-opacity="1" stroke-width="1" stroke-linecap="square" stroke-linejoin="bevel" transform="matrix(1,0,0,1,0,0)"
font-family="Arial" font-size="40.64" font-weight="400" font-style="normal" 
>
<text fill="#000000" fill-opacity="1" stroke="none" xml:space="preserve" x="2870" y="1803" font-family="Arial" font-size="40.64" font-weight="400" font-style="normal" 
 >+2.50</text>
</g>

<g fill="none" stroke="#000000" stroke-opacity="1" stroke-width="4" stroke-linecap="round" stroke-linejoin="bevel" transform="matrix(1,0,0,1,0,0)"
font-family="MS Shell Dlg 2" font-size="58.2083" font-weight="400" font-style="normal" 
>
</g>

<g fill="none" stroke="#000000" stroke-opacity="1" stroke-width="8" stroke-linecap="round" stroke-linejoin="bevel" transform="matrix(1,0,0,1,0,0)"
font-family="MS Shell Dlg 2" font-size="58.2083" font-weight="400" font-style="normal" 
>
<polyline fill="none" vector-effect="none" points="2922,1956 2922,1906 " />
</g>

<g fill="none" stroke="#000000" stroke-opacity="1" stroke-width="8" stroke-linecap="round" stroke-linejoin="bevel" transform="matrix(1,0,0,1,0,0)"
font-family="MS Shell Dlg 2" font-size="58.2083" font-weight="400" font-style="normal" 
>
<polyline fill="none" vector-effect="none" points="2922,1652 2922,1702 " />
</g>

<g fill="#000000" fill-opacity="1" stroke="#000000" stroke-opacity="1" stroke-width="8" stroke-linecap="round" stroke-linejoin="bevel" transform="matrix(1,0,0,1,0,0)"
font-family="MS Shell Dlg 2" font-size="58.2083" font-weight="400" font-style="normal" 
>
<path vector-effect="none" fill-rule="evenodd" d="M2576,1652 C2576,1657.52 2571.52,1662 2566,1662 C2560.48,1662 2556,1657.52 2556,1652 C2556,1646.48 2560.48,1642 2566,1642 C2571.52,1642 2576,1646.48 2576,1652 "/>
</g>

<g fill="#000000" fill-opacity="1" stroke="#000000" stroke-opacity="1" stroke-width="8" stroke-linecap="round" stroke-linejoin="bevel" transform="matrix(1,0,0,1,0,0)"
font-family="MS Shell Dlg 2" font-size="58.2083" font-weight="400" font-style="normal" 
>
<path vector-effect="none" fill-rule="evenodd" d="M2576,1956 C2576,1961.52 2571.52,1966 2566,1966 C2560.48,1966 2556,1961.52 2556,1956 C2556,1950.48 2560.48,1946 2566,1946 C2571.52,1946 2576,1950.48 2576,1956 "/>
</g>
</g>
</svg>
