<?xml version="1.0" standalone="no"?>
 <!DOCTYPE svg PUBLIC "-//W3C//DTD SVG 1.1//EN" 
 "http://www.w3.org/Graphics/SVG/1.1/DTD/svg11.dtd"> 
<svg
  xmlns:svg="http://www.w3.org/2000/svg"
  xmlns="http://www.w3.org/2000/svg"
  xmlns:xlink="http://www.w3.org/1999/xlink"
  version="1.1"
  width="13.500100cm" height="11.000740cm" viewBox="0 0 53150 43310">
<title>SVG Picture created as Practica1ELTELC1A.svg date 2020/09/28 17:47:24 </title>
  <desc>Picture generated by Eeschema-SVG </desc>
<g style="fill:#000000; fill-opacity:1;stroke:#000000; stroke-opacity:1;
stroke-linecap:round; stroke-linejoin:round;"
 transform="translate(0 0) scale(1 1)">
</g>
<g style="fill:#000000; fill-opacity:0.0; 
stroke:#000000; stroke-width:-10; stroke-opacity:1; 
stroke-linecap:round; stroke-linejoin:round;">
</g>
<g style="fill:#840000; fill-opacity:0.0; 
stroke:#840000; stroke-width:-10; stroke-opacity:1; 
stroke-linecap:round; stroke-linejoin:round;">
</g>
<g style="fill:#840000; fill-opacity:0.0; 
stroke:#840000; stroke-width:100; stroke-opacity:1; 
stroke-linecap:round; stroke-linejoin:round;">
</g>
<g style="fill:#840000; fill-opacity:0.0; 
stroke:#840000; stroke-width:60; stroke-opacity:1; 
stroke-linecap:round; stroke-linejoin:round;">
<rect x="5910" y="25990" width="42520" height="12600" rx="0" />
</g>
<g style="fill:#840000; fill-opacity:0.0; 
stroke:#840000; stroke-width:100; stroke-opacity:1; 
stroke-linecap:round; stroke-linejoin:round;">
</g>
<g style="fill:#840000; fill-opacity:0.0; 
stroke:#840000; stroke-width:60; stroke-opacity:1; 
stroke-linecap:round; stroke-linejoin:round;">
<rect x="3940" y="3940" width="45270" height="35430" rx="0" />
</g>
<g style="fill:#840000; fill-opacity:0.0; 
stroke:#840000; stroke-width:100; stroke-opacity:1; 
stroke-linecap:round; stroke-linejoin:round;">
</g>
<g style="fill:#840000; fill-opacity:0.0; 
stroke:#840000; stroke-width:60; stroke-opacity:1; 
stroke-linecap:round; stroke-linejoin:round;">
<rect x="4720" y="4720" width="43710" height="33870" rx="0" />
</g>
<g style="fill:#840000; fill-opacity:0.0; 
stroke:#840000; stroke-width:100; stroke-opacity:1; 
stroke-linecap:round; stroke-linejoin:round;">
</g>
<g style="fill:#840000; fill-opacity:0.0; 
stroke:#840000; stroke-width:60; stroke-opacity:1; 
stroke-linecap:round; stroke-linejoin:round;">
<path d="M23620 4720
L23620 3940
" />
</g>
<g style="fill:#840000; fill-opacity:0.0; 
stroke:#840000; stroke-width:100; stroke-opacity:1; 
stroke-linecap:round; stroke-linejoin:round;">
</g>
<g style="fill:#840000; fill-opacity:0.0; 
stroke:#840000; stroke-width:60; stroke-opacity:1; 
stroke-linecap:round; stroke-linejoin:round;">
<path d="M43310 4720
L43310 3940
" />
</g>
<g style="fill:#840000; fill-opacity:0.0; 
stroke:#840000; stroke-width:100; stroke-opacity:1; 
stroke-linecap:round; stroke-linejoin:round;">
</g>
<g style="fill:#840000; fill-opacity:0.0; 
stroke:#840000; stroke-width:60; stroke-opacity:1; 
stroke-linecap:round; stroke-linejoin:round;">
<text x="13780" y="4580"
textLength="550" font-size="680" lengthAdjust="spacingAndGlyphs"
text-anchor="start" opacity="0">1</text>
<path d="M14190 4560
L13900 4560
" />
<path d="M14050 4560
L14050 4050
L14000 4120
L13950 4170
L13900 4190
" />
</g>
<g style="fill:#840000; fill-opacity:0.0; 
stroke:#840000; stroke-width:100; stroke-opacity:1; 
stroke-linecap:round; stroke-linejoin:round;">
</g>
<g style="fill:#840000; fill-opacity:0.0; 
stroke:#840000; stroke-width:60; stroke-opacity:1; 
stroke-linecap:round; stroke-linejoin:round;">
<text x="33460" y="4580"
textLength="550" font-size="680" lengthAdjust="spacingAndGlyphs"
text-anchor="start" opacity="0">2</text>
<path d="M33580 4090
L33610 4070
L33660 4050
L33780 4050
L33830 4070
L33850 4090
L33870 4140
L33870 4190
L33850 4260
L33560 4560
L33870 4560
" />
</g>
<g style="fill:#840000; fill-opacity:0.0; 
stroke:#840000; stroke-width:100; stroke-opacity:1; 
stroke-linecap:round; stroke-linejoin:round;">
</g>
<g style="fill:#840000; fill-opacity:0.0; 
stroke:#840000; stroke-width:60; stroke-opacity:1; 
stroke-linecap:round; stroke-linejoin:round;">
<path d="M23620 38590
L23620 39370
" />
</g>
<g style="fill:#840000; fill-opacity:0.0; 
stroke:#840000; stroke-width:100; stroke-opacity:1; 
stroke-linecap:round; stroke-linejoin:round;">
</g>
<g style="fill:#840000; fill-opacity:0.0; 
stroke:#840000; stroke-width:60; stroke-opacity:1; 
stroke-linecap:round; stroke-linejoin:round;">
<path d="M43310 38590
L43310 39370
" />
</g>
<g style="fill:#840000; fill-opacity:0.0; 
stroke:#840000; stroke-width:100; stroke-opacity:1; 
stroke-linecap:round; stroke-linejoin:round;">
</g>
<g style="fill:#840000; fill-opacity:0.0; 
stroke:#840000; stroke-width:60; stroke-opacity:1; 
stroke-linecap:round; stroke-linejoin:round;">
<text x="13780" y="39230"
textLength="550" font-size="680" lengthAdjust="spacingAndGlyphs"
text-anchor="start" opacity="0">1</text>
<path d="M14190 39210
L13900 39210
" />
<path d="M14050 39210
L14050 38700
L14000 38770
L13950 38820
L13900 38840
" />
</g>
<g style="fill:#840000; fill-opacity:0.0; 
stroke:#840000; stroke-width:100; stroke-opacity:1; 
stroke-linecap:round; stroke-linejoin:round;">
</g>
<g style="fill:#840000; fill-opacity:0.0; 
stroke:#840000; stroke-width:60; stroke-opacity:1; 
stroke-linecap:round; stroke-linejoin:round;">
<text x="33460" y="39230"
textLength="550" font-size="680" lengthAdjust="spacingAndGlyphs"
text-anchor="start" opacity="0">2</text>
<path d="M33580 38740
L33610 38720
L33660 38700
L33780 38700
L33830 38720
L33850 38740
L33870 38790
L33870 38840
L33850 38910
L33560 39210
L33870 39210
" />
</g>
<g style="fill:#840000; fill-opacity:0.0; 
stroke:#840000; stroke-width:100; stroke-opacity:1; 
stroke-linecap:round; stroke-linejoin:round;">
</g>
<g style="fill:#840000; fill-opacity:0.0; 
stroke:#840000; stroke-width:60; stroke-opacity:1; 
stroke-linecap:round; stroke-linejoin:round;">
<path d="M3940 23620
L4720 23620
" />
</g>
<g style="fill:#840000; fill-opacity:0.0; 
stroke:#840000; stroke-width:100; stroke-opacity:1; 
stroke-linecap:round; stroke-linejoin:round;">
</g>
<g style="fill:#840000; fill-opacity:0.0; 
stroke:#840000; stroke-width:60; stroke-opacity:1; 
stroke-linecap:round; stroke-linejoin:round;">
<text x="4330" y="14030"
textLength="500" font-size="680" lengthAdjust="spacingAndGlyphs"
text-anchor="middle" opacity="0">A</text>
<path d="M4200 13860
L4450 13860
" />
<path d="M4160 14010
L4330 13500
L4500 14010
" />
</g>
<g style="fill:#840000; fill-opacity:0.0; 
stroke:#840000; stroke-width:100; stroke-opacity:1; 
stroke-linecap:round; stroke-linejoin:round;">
</g>
<g style="fill:#840000; fill-opacity:0.0; 
stroke:#840000; stroke-width:60; stroke-opacity:1; 
stroke-linecap:round; stroke-linejoin:round;">
<text x="4330" y="33710"
textLength="570" font-size="680" lengthAdjust="spacingAndGlyphs"
text-anchor="middle" opacity="0">B</text>
<path d="M4360 33420
L4430 33440
L4460 33470
L4480 33520
L4480 33590
L4460 33640
L4430 33660
L4390 33690
L4190 33690
L4190 33180
L4360 33180
L4410 33200
L4430 33220
L4460 33270
L4460 33320
L4430 33370
L4410 33390
L4360 33420
L4190 33420
" />
</g>
<g style="fill:#840000; fill-opacity:0.0; 
stroke:#840000; stroke-width:100; stroke-opacity:1; 
stroke-linecap:round; stroke-linejoin:round;">
</g>
<g style="fill:#840000; fill-opacity:0.0; 
stroke:#840000; stroke-width:60; stroke-opacity:1; 
stroke-linecap:round; stroke-linejoin:round;">
<path d="M49210 23620
L48430 23620
" />
</g>
<g style="fill:#840000; fill-opacity:0.0; 
stroke:#840000; stroke-width:100; stroke-opacity:1; 
stroke-linecap:round; stroke-linejoin:round;">
</g>
<g style="fill:#840000; fill-opacity:0.0; 
stroke:#840000; stroke-width:60; stroke-opacity:1; 
stroke-linecap:round; stroke-linejoin:round;">
<text x="48820" y="14030"
textLength="500" font-size="680" lengthAdjust="spacingAndGlyphs"
text-anchor="middle" opacity="0">A</text>
<path d="M48690 13860
L48940 13860
" />
<path d="M48650 14010
L48820 13500
L48990 14010
" />
</g>
<g style="fill:#840000; fill-opacity:0.0; 
stroke:#840000; stroke-width:100; stroke-opacity:1; 
stroke-linecap:round; stroke-linejoin:round;">
</g>
<g style="fill:#840000; fill-opacity:0.0; 
stroke:#840000; stroke-width:60; stroke-opacity:1; 
stroke-linecap:round; stroke-linejoin:round;">
<text x="48820" y="33710"
textLength="570" font-size="680" lengthAdjust="spacingAndGlyphs"
text-anchor="middle" opacity="0">B</text>
<path d="M48850 33420
L48920 33440
L48950 33470
L48970 33520
L48970 33590
L48950 33640
L48920 33660
L48880 33690
L48680 33690
L48680 33180
L48850 33180
L48900 33200
L48920 33220
L48950 33270
L48950 33320
L48920 33370
L48900 33390
L48850 33420
L48680 33420
" />
</g>
<g style="fill:#840000; fill-opacity:0.0; 
stroke:#840000; stroke-width:100; stroke-opacity:1; 
stroke-linecap:round; stroke-linejoin:round;">
</g>
<g style="fill:#840000; fill-opacity:0.0; 
stroke:#840000; stroke-width:60; stroke-opacity:1; 
stroke-linecap:round; stroke-linejoin:round;">
<text x="14960" y="36950"
textLength="2760" font-size="780" lengthAdjust="spacingAndGlyphs"
text-anchor="start" opacity="0">Date: </text>
<path d="M15130 36920
L15130 36330
L15270 36330
L15350 36360
L15410 36420
L15430 36470
L15460 36580
L15460 36670
L15430 36780
L15410 36840
L15350 36890
L15270 36920
L15130 36920
" />
<path d="M15970 36920
L15970 36610
L15940 36560
L15880 36530
L15770 36530
L15720 36560
" />
<path d="M15970 36890
L15910 36920
L15770 36920
L15720 36890
L15690 36840
L15690 36780
L15720 36730
L15770 36700
L15910 36700
L15970 36670
" />
<path d="M16170 36530
L16390 36530
" />
<path d="M16250 36330
L16250 36840
L16280 36890
L16330 36920
L16390 36920
" />
<path d="M16810 36890
L16760 36920
L16640 36920
L16590 36890
L16560 36840
L16560 36610
L16590 36560
L16640 36530
L16760 36530
L16810 36560
L16840 36610
L16840 36670
L16560 36730
" />
<path d="M17090 36870
L17120 36890
L17090 36920
L17060 36890
L17090 36870
L17090 36920
" />
<path d="M17090 36560
L17120 36580
L17090 36610
L17060 36580
L17090 36560
L17090 36610
" />
</g>
<g style="fill:#840000; fill-opacity:0.0; 
stroke:#840000; stroke-width:100; stroke-opacity:1; 
stroke-linecap:round; stroke-linejoin:round;">
</g>
<g style="fill:#840000; fill-opacity:0.0; 
stroke:#840000; stroke-width:60; stroke-opacity:1; 
stroke-linecap:round; stroke-linejoin:round;">
<path d="M5910 37210
L48430 37210
" />
</g>
<g style="fill:#840000; fill-opacity:0.0; 
stroke:#840000; stroke-width:100; stroke-opacity:1; 
stroke-linecap:round; stroke-linejoin:round;">
</g>
<g style="fill:#840000; fill-opacity:0.0; 
stroke:#840000; stroke-width:60; stroke-opacity:1; 
stroke-linecap:round; stroke-linejoin:round;">
<text x="6300" y="38050"
textLength="11440" font-size="780" lengthAdjust="spacingAndGlyphs"
text-anchor="start" opacity="0">KiCad E.D.A.  kicad 5.1.6</text>
<path d="M6470 38020
L6470 37430
" />
<path d="M6800 38020
L6550 37680
" />
<path d="M6800 37430
L6470 37770
" />
<path d="M7060 38020
L7060 37630
" />
<path d="M7060 37430
L7030 37460
L7060 37490
L7080 37460
L7060 37430
L7060 37490
" />
<path d="M7670 37970
L7650 37990
L7560 38020
L7510 38020
L7420 37990
L7360 37940
L7340 37880
L7310 37770
L7310 37680
L7340 37570
L7360 37520
L7420 37460
L7510 37430
L7560 37430
L7650 37460
L7670 37490
" />
<path d="M8180 38020
L8180 37710
L8150 37660
L8100 37630
L7980 37630
L7930 37660
" />
<path d="M8180 37990
L8120 38020
L7980 38020
L7930 37990
L7900 37940
L7900 37880
L7930 37830
L7980 37800
L8120 37800
L8180 37770
" />
<path d="M8710 38020
L8710 37430
" />
<path d="M8710 37990
L8660 38020
L8540 38020
L8490 37990
L8460 37970
L8430 37910
L8430 37740
L8460 37680
L8490 37660
L8540 37630
L8660 37630
L8710 37660
" />
<path d="M9440 37710
L9640 37710
" />
<path d="M9720 38020
L9440 38020
L9440 37430
L9720 37430
" />
<path d="M9980 37970
L10010 37990
L9980 38020
L9950 37990
L9980 37970
L9980 38020
" />
<path d="M10260 38020
L10260 37430
L10400 37430
L10480 37460
L10540 37520
L10570 37570
L10600 37680
L10600 37770
L10570 37880
L10540 37940
L10480 37990
L10400 38020
L10260 38020
" />
<path d="M10850 37970
L10880 37990
L10850 38020
L10820 37990
L10850 37970
L10850 38020
" />
<path d="M11100 37850
L11380 37850
" />
<path d="M11050 38020
L11240 37430
L11440 38020
" />
<path d="M11640 37970
L11660 37990
L11640 38020
L11610 37990
L11640 37970
L11640 38020
" />
<path d="M12820 38020
L12820 37430
" />
<path d="M12870 37800
L13040 38020
" />
<path d="M13040 37630
L12820 37850
" />
<path d="M13290 38020
L13290 37630
" />
<path d="M13290 37430
L13260 37460
L13290 37490
L13320 37460
L13290 37430
L13290 37490
" />
<path d="M13830 37990
L13770 38020
L13660 38020
L13600 37990
L13570 37970
L13550 37910
L13550 37740
L13570 37680
L13600 37660
L13660 37630
L13770 37630
L13830 37660
" />
<path d="M14330 38020
L14330 37710
L14300 37660
L14250 37630
L14140 37630
L14080 37660
" />
<path d="M14330 37990
L14280 38020
L14140 38020
L14080 37990
L14050 37940
L14050 37880
L14080 37830
L14140 37800
L14280 37800
L14330 37770
" />
<path d="M14870 38020
L14870 37430
" />
<path d="M14870 37990
L14810 38020
L14700 38020
L14640 37990
L14610 37970
L14580 37910
L14580 37740
L14610 37680
L14640 37660
L14700 37630
L14810 37630
L14870 37660
" />
<path d="M15880 37430
L15600 37430
L15570 37710
L15600 37680
L15650 37660
L15790 37660
L15850 37680
L15880 37710
L15910 37770
L15910 37910
L15880 37970
L15850 37990
L15790 38020
L15650 38020
L15600 37990
L15570 37970
" />
<path d="M16160 37970
L16190 37990
L16160 38020
L16130 37990
L16160 37970
L16160 38020
" />
<path d="M16750 38020
L16410 38020
" />
<path d="M16580 38020
L16580 37430
L16520 37520
L16470 37570
L16410 37600
" />
<path d="M17000 37970
L17030 37990
L17000 38020
L16970 37990
L17000 37970
L17000 38020
" />
<path d="M17530 37430
L17420 37430
L17370 37460
L17340 37490
L17280 37570
L17250 37680
L17250 37910
L17280 37970
L17310 37990
L17370 38020
L17480 38020
L17530 37990
L17560 37970
L17590 37910
L17590 37770
L17560 37710
L17530 37680
L17480 37660
L17370 37660
L17310 37680
L17280 37710
L17250 37770
" />
</g>
<g style="fill:#840000; fill-opacity:0.0; 
stroke:#840000; stroke-width:100; stroke-opacity:1; 
stroke-linecap:round; stroke-linejoin:round;">
</g>
<g style="fill:#840000; fill-opacity:0.0; 
stroke:#840000; stroke-width:60; stroke-opacity:1; 
stroke-linecap:round; stroke-linejoin:round;">
<path d="M5910 36030
L48430 36030
" />
</g>
<g style="fill:#840000; fill-opacity:0.0; 
stroke:#840000; stroke-width:100; stroke-opacity:1; 
stroke-linecap:round; stroke-linejoin:round;">
</g>
<g style="fill:#840000; fill-opacity:0.0; 
stroke:#840000; stroke-width:120; stroke-opacity:1; 
stroke-linecap:round; stroke-linejoin:round;">
<text x="39760" y="36950"
textLength="2340" font-size="780" lengthAdjust="spacingAndGlyphs"
text-anchor="start" opacity="0">Rev: </text>
<path d="M40310 36920
L40110 36640
" />
<path d="M39970 36920
L39970 36330
L40200 36330
L40250 36360
L40280 36390
L40310 36440
L40310 36530
L40280 36580
L40250 36610
L40200 36640
L39970 36640
" />
<path d="M40790 36890
L40730 36920
L40620 36920
L40560 36890
L40540 36840
L40540 36610
L40560 36560
L40620 36530
L40730 36530
L40790 36560
L40820 36610
L40820 36670
L40540 36730
" />
<path d="M41010 36530
L41150 36920
L41290 36530
" />
<path d="M41520 36870
L41550 36890
L41520 36920
L41490 36890
L41520 36870
L41520 36920
" />
<path d="M41520 36560
L41550 36580
L41520 36610
L41490 36580
L41520 36560
L41520 36610
" />
</g>
<g style="fill:#840000; fill-opacity:0.0; 
stroke:#840000; stroke-width:100; stroke-opacity:1; 
stroke-linecap:round; stroke-linejoin:round;">
</g>
<g style="fill:#840000; fill-opacity:0.0; 
stroke:#840000; stroke-width:60; stroke-opacity:1; 
stroke-linecap:round; stroke-linejoin:round;">
<text x="6300" y="36950"
textLength="4680" font-size="780" lengthAdjust="spacingAndGlyphs"
text-anchor="start" opacity="0">Size: User</text>
<path d="M6440 36890
L6520 36920
L6660 36920
L6720 36890
L6750 36870
L6770 36810
L6770 36750
L6750 36700
L6720 36670
L6660 36640
L6550 36610
L6490 36580
L6470 36560
L6440 36500
L6440 36440
L6470 36390
L6490 36360
L6550 36330
L6690 36330
L6770 36360
" />
<path d="M7030 36920
L7030 36530
" />
<path d="M7030 36330
L7000 36360
L7030 36390
L7060 36360
L7030 36330
L7030 36390
" />
<path d="M7250 36530
L7560 36530
L7250 36920
L7560 36920
" />
<path d="M8010 36890
L7950 36920
L7840 36920
L7790 36890
L7760 36840
L7760 36610
L7790 36560
L7840 36530
L7950 36530
L8010 36560
L8040 36610
L8040 36670
L7760 36730
" />
<path d="M8290 36870
L8320 36890
L8290 36920
L8260 36890
L8290 36870
L8290 36920
" />
<path d="M8290 36560
L8320 36580
L8290 36610
L8260 36580
L8290 36560
L8290 36610
" />
<path d="M9020 36330
L9020 36810
L9050 36870
L9080 36890
L9130 36920
L9250 36920
L9300 36890
L9330 36870
L9360 36810
L9360 36330
" />
<path d="M9610 36890
L9670 36920
L9780 36920
L9840 36890
L9870 36840
L9870 36810
L9840 36750
L9780 36730
L9700 36730
L9640 36700
L9610 36640
L9610 36610
L9640 36560
L9700 36530
L9780 36530
L9840 36560
" />
<path d="M10340 36890
L10290 36920
L10170 36920
L10120 36890
L10090 36840
L10090 36610
L10120 36560
L10170 36530
L10290 36530
L10340 36560
L10370 36610
L10370 36670
L10090 36730
" />
<path d="M10620 36920
L10620 36530
" />
<path d="M10620 36640
L10650 36580
L10680 36560
L10740 36530
L10790 36530
" />
</g>
<g style="fill:#840000; fill-opacity:0.0; 
stroke:#840000; stroke-width:100; stroke-opacity:1; 
stroke-linecap:round; stroke-linejoin:round;">
</g>
<g style="fill:#840000; fill-opacity:0.0; 
stroke:#840000; stroke-width:60; stroke-opacity:1; 
stroke-linecap:round; stroke-linejoin:round;">
<text x="39760" y="38050"
textLength="3350" font-size="780" lengthAdjust="spacingAndGlyphs"
text-anchor="start" opacity="0">Id: 1/1</text>
<path d="M39930 38020
L39930 37430
" />
<path d="M40460 38020
L40460 37430
" />
<path d="M40460 37990
L40400 38020
L40290 38020
L40230 37990
L40210 37970
L40180 37910
L40180 37740
L40210 37680
L40230 37660
L40290 37630
L40400 37630
L40460 37660
" />
<path d="M40740 37970
L40770 37990
L40740 38020
L40710 37990
L40740 37970
L40740 38020
" />
<path d="M40740 37660
L40770 37680
L40740 37710
L40710 37680
L40740 37660
L40740 37710
" />
<path d="M41780 38020
L41440 38020
" />
<path d="M41610 38020
L41610 37430
L41560 37520
L41500 37570
L41440 37600
" />
<path d="M42450 37400
L41950 38160
" />
<path d="M42960 38020
L42620 38020
" />
<path d="M42790 38020
L42790 37430
L42740 37520
L42680 37570
L42620 37600
" />
</g>
<g style="fill:#840000; fill-opacity:0.0; 
stroke:#840000; stroke-width:100; stroke-opacity:1; 
stroke-linecap:round; stroke-linejoin:round;">
</g>
<g style="fill:#840000; fill-opacity:0.0; 
stroke:#840000; stroke-width:60; stroke-opacity:1; 
stroke-linecap:round; stroke-linejoin:round;">
<path d="M5910 34450
L48430 34450
" />
</g>
<g style="fill:#840000; fill-opacity:0.0; 
stroke:#840000; stroke-width:100; stroke-opacity:1; 
stroke-linecap:round; stroke-linejoin:round;">
</g>
<g style="fill:#840000; fill-opacity:0.0; 
stroke:#840000; stroke-width:160; stroke-opacity:1; 
stroke-linecap:round; stroke-linejoin:round;">
<text x="6300" y="35550"
textLength="3710" font-size="1050" lengthAdjust="spacingAndGlyphs"
text-anchor="start" opacity="0">Title: </text>
<path d="M6580 34720
L7030 34720
" />
<path d="M6700 35510
L6800 34720
" />
<path d="M7190 35510
L7260 34990
" />
<path d="M7290 34720
L7250 34760
L7280 34800
L7330 34760
L7290 34720
L7280 34800
" />
<path d="M7520 34990
L7820 34990
" />
<path d="M7670 34720
L7580 35400
L7610 35470
L7680 35510
L7760 35510
" />
<path d="M8130 35510
L8060 35470
L8040 35400
L8120 34720
" />
<path d="M8740 35470
L8660 35510
L8510 35510
L8440 35470
L8410 35400
L8450 35100
L8500 35020
L8580 34990
L8730 34990
L8800 35020
L8830 35100
L8820 35170
L8430 35250
" />
<path d="M9120 35440
L9150 35470
L9110 35510
L9080 35470
L9120 35440
L9110 35510
" />
<path d="M9170 35020
L9210 35060
L9160 35100
L9130 35060
L9170 35020
L9160 35100
" />
</g>
<g style="fill:#840000; fill-opacity:0.0; 
stroke:#840000; stroke-width:100; stroke-opacity:1; 
stroke-linecap:round; stroke-linejoin:round;">
</g>
<g style="fill:#840000; fill-opacity:0.0; 
stroke:#840000; stroke-width:60; stroke-opacity:1; 
stroke-linecap:round; stroke-linejoin:round;">
<text x="6300" y="34030"
textLength="12680" font-size="780" lengthAdjust="spacingAndGlyphs"
text-anchor="start" opacity="0">File: Practica1ELTELC1A.sch</text>
<path d="M6660 33690
L6470 33690
" />
<path d="M6470 34000
L6470 33410
L6750 33410
" />
<path d="M6970 34000
L6970 33610
" />
<path d="M6970 33410
L6940 33440
L6970 33470
L7000 33440
L6970 33410
L6970 33470
" />
<path d="M7340 34000
L7280 33970
L7250 33920
L7250 33410
" />
<path d="M7790 33970
L7730 34000
L7620 34000
L7560 33970
L7530 33920
L7530 33690
L7560 33640
L7620 33610
L7730 33610
L7790 33640
L7810 33690
L7810 33750
L7530 33810
" />
<path d="M8070 33950
L8100 33970
L8070 34000
L8040 33970
L8070 33950
L8070 34000
" />
<path d="M8070 33640
L8100 33660
L8070 33690
L8040 33660
L8070 33640
L8070 33690
" />
<path d="M8800 34000
L8800 33410
L9020 33410
L9080 33440
L9110 33470
L9130 33520
L9130 33610
L9110 33660
L9080 33690
L9020 33720
L8800 33720
" />
<path d="M9390 34000
L9390 33610
" />
<path d="M9390 33720
L9420 33660
L9440 33640
L9500 33610
L9560 33610
" />
<path d="M10010 34000
L10010 33690
L9980 33640
L9920 33610
L9810 33610
L9750 33640
" />
<path d="M10010 33970
L9950 34000
L9810 34000
L9750 33970
L9720 33920
L9720 33860
L9750 33810
L9810 33780
L9950 33780
L10010 33750
" />
<path d="M10540 33970
L10480 34000
L10370 34000
L10310 33970
L10290 33950
L10260 33890
L10260 33720
L10290 33660
L10310 33640
L10370 33610
L10480 33610
L10540 33640
" />
<path d="M10710 33610
L10930 33610
" />
<path d="M10790 33410
L10790 33920
L10820 33970
L10880 34000
L10930 34000
" />
<path d="M11130 34000
L11130 33610
" />
<path d="M11130 33410
L11100 33440
L11130 33470
L11160 33440
L11130 33410
L11130 33470
" />
<path d="M11660 33970
L11610 34000
L11490 34000
L11440 33970
L11410 33950
L11380 33890
L11380 33720
L11410 33660
L11440 33640
L11490 33610
L11610 33610
L11660 33640
" />
<path d="M12170 34000
L12170 33690
L12140 33640
L12080 33610
L11970 33610
L11920 33640
" />
<path d="M12170 33970
L12110 34000
L11970 34000
L11920 33970
L11890 33920
L11890 33860
L11920 33810
L11970 33780
L12110 33780
L12170 33750
" />
<path d="M12760 34000
L12420 34000
" />
<path d="M12590 34000
L12590 33410
L12530 33500
L12480 33550
L12420 33580
" />
<path d="M13010 33690
L13210 33690
" />
<path d="M13290 34000
L13010 34000
L13010 33410
L13290 33410
" />
<path d="M13830 34000
L13550 34000
L13550 33410
" />
<path d="M13940 33410
L14280 33410
" />
<path d="M14110 34000
L14110 33410
" />
<path d="M14470 33690
L14670 33690
" />
<path d="M14750 34000
L14470 34000
L14470 33410
L14750 33410
" />
<path d="M15290 34000
L15010 34000
L15010 33410
" />
<path d="M15820 33950
L15790 33970
L15710 34000
L15650 34000
L15570 33970
L15510 33920
L15480 33860
L15460 33750
L15460 33660
L15480 33550
L15510 33500
L15570 33440
L15650 33410
L15710 33410
L15790 33440
L15820 33470
" />
<path d="M16380 34000
L16050 34000
" />
<path d="M16210 34000
L16210 33410
L16160 33500
L16100 33550
L16050 33580
" />
<path d="M16610 33830
L16890 33830
" />
<path d="M16550 34000
L16750 33410
L16940 34000
" />
<path d="M17140 33950
L17170 33970
L17140 34000
L17110 33970
L17140 33950
L17140 34000
" />
<path d="M17390 33970
L17450 34000
L17560 34000
L17620 33970
L17650 33920
L17650 33890
L17620 33830
L17560 33810
L17480 33810
L17420 33780
L17390 33720
L17390 33690
L17420 33640
L17480 33610
L17560 33610
L17620 33640
" />
<path d="M18150 33970
L18100 34000
L17980 34000
L17930 33970
L17900 33950
L17870 33890
L17870 33720
L17900 33660
L17930 33640
L17980 33610
L18100 33610
L18150 33640
" />
<path d="M18410 34000
L18410 33410
" />
<path d="M18660 34000
L18660 33690
L18630 33640
L18570 33610
L18490 33610
L18430 33640
L18410 33660
" />
</g>
<g style="fill:#840000; fill-opacity:0.0; 
stroke:#840000; stroke-width:100; stroke-opacity:1; 
stroke-linecap:round; stroke-linejoin:round;">
</g>
<g style="fill:#840000; fill-opacity:0.0; 
stroke:#840000; stroke-width:60; stroke-opacity:1; 
stroke-linecap:round; stroke-linejoin:round;">
<path d="M5910 32090
L48430 32090
" />
</g>
<g style="fill:#840000; fill-opacity:0.0; 
stroke:#840000; stroke-width:100; stroke-opacity:1; 
stroke-linecap:round; stroke-linejoin:round;">
</g>
<g style="fill:#840000; fill-opacity:0.0; 
stroke:#840000; stroke-width:60; stroke-opacity:1; 
stroke-linecap:round; stroke-linejoin:round;">
<text x="6300" y="32970"
textLength="3850" font-size="780" lengthAdjust="spacingAndGlyphs"
text-anchor="start" opacity="0">Sheet: /</text>
<path d="M6440 32910
L6520 32940
L6660 32940
L6720 32910
L6750 32890
L6770 32830
L6770 32770
L6750 32720
L6720 32690
L6660 32660
L6550 32630
L6490 32600
L6470 32580
L6440 32520
L6440 32460
L6470 32410
L6490 32380
L6550 32350
L6690 32350
L6770 32380
" />
<path d="M7030 32940
L7030 32350
" />
<path d="M7280 32940
L7280 32630
L7250 32580
L7200 32550
L7110 32550
L7060 32580
L7030 32600
" />
<path d="M7790 32910
L7730 32940
L7620 32940
L7560 32910
L7530 32860
L7530 32630
L7560 32580
L7620 32550
L7730 32550
L7790 32580
L7810 32630
L7810 32690
L7530 32750
" />
<path d="M8290 32910
L8240 32940
L8120 32940
L8070 32910
L8040 32860
L8040 32630
L8070 32580
L8120 32550
L8240 32550
L8290 32580
L8320 32630
L8320 32690
L8040 32750
" />
<path d="M8490 32550
L8710 32550
" />
<path d="M8570 32350
L8570 32860
L8600 32910
L8660 32940
L8710 32940
" />
<path d="M8910 32890
L8940 32910
L8910 32940
L8880 32910
L8910 32890
L8910 32940
" />
<path d="M8910 32580
L8940 32600
L8910 32630
L8880 32600
L8910 32580
L8910 32630
" />
<path d="M10060 32320
L9560 33080
" />
</g>
<g style="fill:#840000; fill-opacity:0.0; 
stroke:#840000; stroke-width:100; stroke-opacity:1; 
stroke-linecap:round; stroke-linejoin:round;">
</g>
<g style="fill:#840000; fill-opacity:0.0; 
stroke:#840000; stroke-width:60; stroke-opacity:1; 
stroke-linecap:round; stroke-linejoin:round;">
<path d="M13780 36030
L13780 37210
" />
</g>
<g style="fill:#840000; fill-opacity:0.0; 
stroke:#840000; stroke-width:100; stroke-opacity:1; 
stroke-linecap:round; stroke-linejoin:round;">
</g>
<g style="fill:#840000; fill-opacity:0.0; 
stroke:#840000; stroke-width:60; stroke-opacity:1; 
stroke-linecap:round; stroke-linejoin:round;">
<path d="M38980 36030
L38980 38590
" />
</g>
<g style="fill:#840000; fill-opacity:0.0; 
stroke:#840000; stroke-width:0; stroke-opacity:1; 
stroke-linecap:round; stroke-linejoin:round;">
<g >
</g>
<g style="fill:#840000; fill-opacity:0.0; 
stroke:#840000; stroke-width:60; stroke-opacity:1; 
stroke-linecap:round; stroke-linejoin:round;">
<circle cx="14500" cy="19000" r="2000" /> 
<text x="11300" y="19370"
textLength="490" font-size="660" lengthAdjust="spacingAndGlyphs"
text-anchor="middle" opacity="0">V</text>
<path d="M11130 18840
L11300 19340
L11460 18840
" />
</g>
<g style="fill:#840000; fill-opacity:1.0; 
stroke:#840000; stroke-width:60; stroke-opacity:1; 
stroke-linecap:round; stroke-linejoin:round;">
<path style="fill:#840000; fill-opacity:1.0; 
stroke:#840000; stroke-width:60; stroke-opacity:1; 
stroke-linecap:round; stroke-linejoin:round;fill-rule:evenodd;"
d="M 12000,21500
12000,17500
" /> 
<path style="fill:#840000; fill-opacity:1.0; 
stroke:#840000; stroke-width:60; stroke-opacity:1; 
stroke-linecap:round; stroke-linejoin:round;fill-rule:evenodd;"
d="M 11500,17500
12000,16500
12500,17500
" /> 
</g>
<g style="fill:#840000; fill-opacity:0.0; 
stroke:#840000; stroke-width:60; stroke-opacity:1; 
stroke-linecap:round; stroke-linejoin:round;">
<path d="M14500 17000
L14500 16000
" />
</g>
<g style="fill:#008484; fill-opacity:0.0; 
stroke:#008484; stroke-width:60; stroke-opacity:1; 
stroke-linecap:round; stroke-linejoin:round;">
<g transform="rotate(-90 14500 17400)">
<text x="14500" y="17650"
textLength="990" font-size="660" lengthAdjust="spacingAndGlyphs"
text-anchor="end" opacity="0">E1</text>
</g>
<path d="M14460 18230
L14460 18070
" />
<path d="M14720 18000
L14720 18230
L14220 18230
L14220 18000
" />
<path d="M14720 17520
L14720 17810
" />
<path d="M14720 17660
L14220 17660
L14290 17710
L14340 17760
L14360 17810
" />
</g>
<g style="fill:#840000; fill-opacity:0.0; 
stroke:#840000; stroke-width:60; stroke-opacity:1; 
stroke-linecap:round; stroke-linejoin:round;">
<g transform="rotate(-90 14400 16500)">
<text x="14400" y="16500"
textLength="540" font-size="660" lengthAdjust="spacingAndGlyphs"
text-anchor="middle" opacity="0">1</text>
</g>
<path d="M14370 16350
L14370 16640
" />
<path d="M14370 16500
L13870 16500
L13940 16540
L13990 16590
L14010 16640
" />
<path d="M14500 21000
L14500 22000
" />
</g>
<g style="fill:#008484; fill-opacity:0.0; 
stroke:#008484; stroke-width:60; stroke-opacity:1; 
stroke-linecap:round; stroke-linejoin:round;">
<g transform="rotate(-90 14500 20600)">
<text x="14500" y="20850"
textLength="990" font-size="660" lengthAdjust="spacingAndGlyphs"
text-anchor="start" opacity="0">E2</text>
</g>
<path d="M14460 20450
L14460 20280
" />
<path d="M14720 20210
L14720 20450
L14220 20450
L14220 20210
" />
<path d="M14270 20020
L14250 19990
L14220 19950
L14220 19830
L14250 19780
L14270 19760
L14320 19730
L14360 19730
L14440 19760
L14720 20040
L14720 19730
" />
</g>
<g style="fill:#840000; fill-opacity:0.0; 
stroke:#840000; stroke-width:60; stroke-opacity:1; 
stroke-linecap:round; stroke-linejoin:round;">
<g transform="rotate(-90 14400 21500)">
<text x="14400" y="21500"
textLength="540" font-size="660" lengthAdjust="spacingAndGlyphs"
text-anchor="middle" opacity="0">2</text>
</g>
<path d="M13920 21640
L13900 21610
L13870 21570
L13870 21450
L13900 21400
L13920 21380
L13970 21350
L14010 21350
L14090 21380
L14370 21660
L14370 21350
" />
</g>
<g style="fill:#008484; fill-opacity:0.0; 
stroke:#008484; stroke-width:60; stroke-opacity:1; 
stroke-linecap:round; stroke-linejoin:round;">
<text x="17260" y="18810"
textLength="960" font-size="660" lengthAdjust="spacingAndGlyphs"
text-anchor="middle" opacity="0">5V</text>
<path d="M17160 18280
L16920 18280
L16900 18520
L16920 18500
L16970 18470
L17090 18470
L17140 18500
L17160 18520
L17180 18570
L17180 18690
L17160 18730
L17140 18760
L17090 18780
L16970 18780
L16920 18760
L16900 18730
" />
<path d="M17330 18280
L17490 18780
L17660 18280
" />
<text x="17240" y="19720"
textLength="920" font-size="660" lengthAdjust="spacingAndGlyphs"
text-anchor="middle" opacity="0">FA</text>
<path d="M17090 19430
L16930 19430
" />
<path d="M16930 19690
L16930 19190
L17160 19190
" />
<path d="M17330 19550
L17570 19550
" />
<path d="M17280 19690
L17450 19190
L17620 19690
" />
</g>
</g>
<g style="fill:#008484; fill-opacity:0.0; 
stroke:#008484; stroke-width:0; stroke-opacity:1; 
stroke-linecap:round; stroke-linejoin:round;">
<g >
</g>
<g style="fill:#840000; fill-opacity:0.0; 
stroke:#840000; stroke-width:0; stroke-opacity:1; 
stroke-linecap:round; stroke-linejoin:round;">
</g>
<g style="fill:#840000; fill-opacity:0.0; 
stroke:#840000; stroke-width:100; stroke-opacity:1; 
stroke-linecap:round; stroke-linejoin:round;">
<circle cx="32000" cy="18500" r="1000" /> 
</g>
<g style="fill:#840000; fill-opacity:0.0; 
stroke:#840000; stroke-width:60; stroke-opacity:1; 
stroke-linecap:round; stroke-linejoin:round;">
<text x="32000" y="18970"
textLength="920" font-size="1330" lengthAdjust="spacingAndGlyphs"
text-anchor="middle" opacity="0">V</text>
<path d="M31660 17920
L32000 18920
L32330 17920
" />
<path style="fill:#840000; fill-opacity:0.0; 
stroke:#840000; stroke-width:60; stroke-opacity:1; 
stroke-linecap:round; stroke-linejoin:round;fill:none"
d="M 33250,17250
32750,17750
" /> 
<path style="fill:#840000; fill-opacity:0.0; 
stroke:#840000; stroke-width:60; stroke-opacity:1; 
stroke-linecap:round; stroke-linejoin:round;fill:none"
d="M 31250,19250
30750,19750
" /> 
<path style="fill:#840000; fill-opacity:0.0; 
stroke:#840000; stroke-width:60; stroke-opacity:1; 
stroke-linecap:round; stroke-linejoin:round;fill:none"
d="M 31250,19750
30750,19750
30750,19250
" /> 
<path style="fill:#840000; fill-opacity:0.0; 
stroke:#840000; stroke-width:60; stroke-opacity:1; 
stroke-linecap:round; stroke-linejoin:round;fill:none"
d="M 31900,20000
31700,20000
" /> 
<path style="fill:#840000; fill-opacity:0.0; 
stroke:#840000; stroke-width:60; stroke-opacity:1; 
stroke-linecap:round; stroke-linejoin:round;fill:none"
d="M 31800,20100
31800,19900
" /> 
<path d="M32000 17500
L32000 16500
" />
<path d="M32000 19500
L32000 20500
" />
</g>
<g style="fill:#008484; fill-opacity:0.0; 
stroke:#008484; stroke-width:60; stroke-opacity:1; 
stroke-linecap:round; stroke-linejoin:round;">
<text x="34010" y="17810"
textLength="960" font-size="660" lengthAdjust="spacingAndGlyphs"
text-anchor="middle" opacity="0">5V</text>
<path d="M33910 17280
L33670 17280
L33650 17520
L33670 17500
L33720 17470
L33840 17470
L33890 17500
L33910 17520
L33930 17570
L33930 17690
L33910 17730
L33890 17760
L33840 17780
L33720 17780
L33670 17760
L33650 17730
" />
<path d="M34080 17280
L34240 17780
L34410 17280
" />
<text x="34090" y="18720"
textLength="1130" font-size="660" lengthAdjust="spacingAndGlyphs"
text-anchor="middle" opacity="0">MD</text>
<path d="M33670 18690
L33670 18190
L33840 18550
L34000 18190
L34000 18690
" />
<path d="M34240 18690
L34240 18190
L34360 18190
L34430 18220
L34480 18260
L34500 18310
L34530 18410
L34530 18480
L34500 18570
L34480 18620
L34430 18670
L34360 18690
L34240 18690
" />
</g>
<g style="fill:#840084; fill-opacity:0.0; 
stroke:#840084; stroke-width:60; stroke-opacity:1; 
stroke-linecap:round; stroke-linejoin:round;">
<text x="35140" y="19630"
textLength="3230" font-size="660" lengthAdjust="spacingAndGlyphs"
text-anchor="middle" opacity="0">10MOhm</text>
<path d="M33930 19600
L33650 19600
" />
<path d="M33790 19600
L33790 19100
L33740 19170
L33690 19220
L33650 19240
" />
<path d="M34240 19100
L34290 19100
L34340 19130
L34360 19150
L34390 19200
L34410 19290
L34410 19410
L34390 19510
L34360 19550
L34340 19580
L34290 19600
L34240 19600
L34190 19580
L34170 19550
L34150 19510
L34120 19410
L34120 19290
L34150 19200
L34170 19150
L34190 19130
L34240 19100
" />
<path d="M34620 19600
L34620 19100
L34790 19460
L34960 19100
L34960 19600
" />
<path d="M35290 19100
L35390 19100
L35430 19130
L35480 19170
L35500 19270
L35500 19430
L35480 19530
L35430 19580
L35390 19600
L35290 19600
L35240 19580
L35190 19530
L35170 19430
L35170 19270
L35190 19170
L35240 19130
L35290 19100
" />
<path d="M35720 19600
L35720 19100
" />
<path d="M35930 19600
L35930 19340
L35910 19290
L35860 19270
L35790 19270
L35740 19290
L35720 19320
" />
<path d="M36170 19600
L36170 19270
" />
<path d="M36170 19320
L36190 19290
L36240 19270
L36310 19270
L36360 19290
L36390 19340
L36390 19600
" />
<path d="M36390 19340
L36410 19290
L36460 19270
L36530 19270
L36580 19290
L36600 19340
L36600 19600
" />
</g>
</g>
<g style="fill:#840084; fill-opacity:0.0; 
stroke:#840084; stroke-width:60; stroke-opacity:1; 
stroke-linecap:round; stroke-linejoin:round;">
</g>
<g style="fill:#008400; fill-opacity:0.0; 
stroke:#008400; stroke-width:60; stroke-opacity:1; 
stroke-linecap:round; stroke-linejoin:round;">
<path d="M14500 16000
L32000 16000
" />
<path d="M32000 16000
L32000 16500
" />
<path d="M32000 20500
L32000 22000
" />
<path d="M32000 22000
L14500 22000
" />
</g> 
</svg>
